<svg xmlns="http://www.w3.org/2000/svg" width="60" height="60" viewBox="0 0 60 60">
    <defs>
        <linearGradient id="enifbzjc9a" x1="0%" x2="100%" y1="35.825%" y2="64.175%">
            <stop offset="0%" stop-color="#F5F4EC"/>
            <stop offset="100%" stop-color="#ACE7CE"/>
        </linearGradient>
    </defs>
    <g fill="none" fill-rule="evenodd">
        <g>
            <g>
                <g>
                    <path stroke="#567D68" stroke-linecap="square" stroke-width="2" d="M35.969 20.594c0 3.337-2.705 6.042-6.042 6.042-3.336 0-6.042-2.705-6.042-6.042 0-3.337 6.042-12.794 6.042-12.794s6.042 9.457 6.042 12.794z" transform="translate(-1041 -740) translate(221 740) translate(820)"/>
                    <path fill="url(#enifbzjc9a)" d="M3.6 52.644V25.359c.008-.008 3.086-4.126 19.344 5.804 1.021.624 2.006 1.116 2.954 1.493 1.32.524 2.72.765 4.126.765 1.406 0 2.807-.241 4.126-.765.948-.377 1.932-.869 2.954-1.493 16.258-9.93 19.336-5.812 19.344-5.804v27.285" transform="translate(-1041 -740) translate(221 740) translate(820)"/>
                    <path stroke="#567D68" stroke-linecap="square" stroke-width="2" d="M3.6 54.444V25.359c.008-.008 3.086-4.126 19.344 5.804 1.021.624 2.006 1.116 2.954 1.493 1.32.524 2.72.765 4.126.765 1.406 0 2.807-.241 4.126-.765.948-.377 1.932-.869 2.954-1.493 16.258-9.93 19.336-5.812 19.344-5.804v29.085" transform="translate(-1041 -740) translate(221 740) translate(820)"/>
                    <path stroke="#567D68" stroke-linecap="square" stroke-width="2" d="M12.511 44.681c1.192 0 2.162.97 2.162 2.161 0 1.192-.97 2.162-2.162 2.162-1.191 0-2.161-.97-2.161-2.162 0-1.191.97-2.161 2.161-2.161zm34.841 0c1.192 0 2.162.97 2.162 2.162 0 1.191-.97 2.16-2.162 2.16-1.191 0-2.161-.969-2.161-2.16 0-1.192.97-2.162 2.161-2.162zM21.55 36.974c1.192 0 2.161.97 2.161 2.161 0 1.192-.97 2.162-2.161 2.162-1.192 0-2.161-.97-2.161-2.162 0-1.191.97-2.16 2.16-2.16zm16.765 0c1.192 0 2.162.97 2.162 2.161 0 1.192-.97 2.162-2.162 2.162-1.191 0-2.16-.97-2.16-2.162 0-1.191.969-2.16 2.16-2.16zm-27.183-1.732c1.191 0 2.161.97 2.161 2.16 0 1.193-.97 2.162-2.161 2.162-1.192 0-2.161-.97-2.161-2.161 0-1.192.97-2.161 2.161-2.161zm37.602 0c1.191 0 2.16.97 2.16 2.16 0 1.193-.969 2.162-2.16 2.162-1.192 0-2.162-.97-2.162-2.161 0-1.192.97-2.161 2.162-2.161z" transform="translate(-1041 -740) translate(221 740) translate(820)"/>
                </g>
            </g>
        </g>
    </g>
</svg>
