<?xml version="1.0" standalone="no"?>
<!-- Generator: Adobe Fireworks 10, Export SVG Extension by Aaron Beall (http://fireworks.abeall.com) . Version: 0.6.1  -->
<!DOCTYPE svg PUBLIC "-//W3C//DTD SVG 1.1//EN" "http://www.w3.org/Graphics/SVG/1.1/DTD/svg11.dtd">
<svg id="Untitled-Page%201" viewBox="0 0 65 55" style="background-color:#ffffff00" version="1.1"
	xmlns="http://www.w3.org/2000/svg" xmlns:xlink="http://www.w3.org/1999/xlink" xml:space="preserve"
	x="0px" y="0px" width="65px" height="55px"
>
	<defs>
		<linearGradient id="gradient1" x1="100%" y1="61.9048%" x2="0%" y2="73.974%">
			<stop stop-color="#f5f4ec" stop-opacity="1" offset="0%"/>
			<stop stop-color="#afe7cf" stop-opacity="1" offset="100%"/>
		</linearGradient>
	</defs>
	<g id="Layer%201">
		<path d="M 3 4.81 L 3 4.81 C 11.202 9.224 24.515 9.224 32.707 4.81 C 40.909 0.397 54.222 0.397 62.424 4.81 " stroke="#567d68" stroke-width="2" fill="none"/>
		<path d="M 3 20.419 C 11.202 24.832 24.515 24.832 32.707 20.419 C 40.909 16.005 54.222 16.005 62.424 20.419 " stroke="#567d68" stroke-width="5" fill="none"/>
		<path d="M 3 35.3675 C 11.1436 39.8514 24.3608 39.8514 32.4955 35.3675 C 40.6392 30.8775 53.8564 30.8775 62 35.3675 L 62 53 L 3 53 L 3 35.3675 L 3 35.3675 Z" fill="url(#gradient1)"/>
		<path d="M 3 36.032 C 11.202 40.441 24.515 40.441 32.707 36.032 C 40.909 31.619 54.222 31.619 62.424 36.032 L 62.424 53.367 L 3 53.367 L 3 36.032 L 3 36.032 Z" stroke="#567d68" stroke-width="2" fill="none"/>
	</g>
</svg>