<svg width="180" height="278" viewBox="0 0 180 278" xmlns="http://www.w3.org/2000/svg">
    <g fill="none" fill-rule="evenodd">
        <path d="M104.562 113.85c9.941-5.091 22.685-5.399 29.233.662 4.136 3.83 10.32 3.985 15.018 1.016 2.228-1.409 4.029-3.46 6.386-4.636 6.261-3.124 20.278-6.652 22.895 2.739M118.463 75.815c-.763 4.147-.478 11.813 2.554 15.31 1.866 2.146 3.771 3.137 6.597 3.645 5.31.947 8.552 2.35 12.034 6.471 3.947 4.67 9.958 4.776 14.287.384 2.2-2.222 4.014-4.7 6.045-7.01 0 0 9.93-11.54 18.113-1.368M156.148 224.623a8.11 8.11 0 0 1-8.111 8.113 8.112 8.112 0 1 1 0-16.222c4.48 0 8.11 3.629 8.11 8.11zM105.619 215.438a2.758 2.758 0 1 1-5.517 0 2.76 2.76 0 0 1 2.76-2.763 2.76 2.76 0 0 1 2.757 2.763zM92.16 221.16a7.766 7.766 0 0 1-7.767 7.763c-4.29 0-7.768-3.476-7.768-7.763a7.77 7.77 0 0 1 7.768-7.769 7.77 7.77 0 0 1 7.766 7.769zM107.403 232.698a3.115 3.115 0 0 1-3.112 3.106 3.105 3.105 0 0 1 0-6.212 3.11 3.11 0 0 1 3.112 3.106zM127.803 233.043a6.562 6.562 0 0 1-6.56 6.562 6.561 6.561 0 0 1-6.556-6.562 6.557 6.557 0 0 1 6.556-6.556 6.558 6.558 0 0 1 6.56 6.556zM74.54 233.547a7.071 7.071 0 0 1-7.075 7.073 7.073 7.073 0 0 1-7.078-7.073 7.077 7.077 0 0 1 14.152 0zM56.603 219.407a2.242 2.242 0 0 1-2.243 2.243 2.244 2.244 0 1 1 2.243-2.243zM42.39 233.215a5.7 5.7 0 0 1-5.697 5.697 5.696 5.696 0 1 1 5.697-5.697zM22.994 220.441a6.39 6.39 0 0 1-6.385 6.388 6.389 6.389 0 0 1 0-12.775 6.388 6.388 0 0 1 6.385 6.387zM172.026 217.55a4.83 4.83 0 0 1-4.833 4.826 4.83 4.83 0 1 1 0-9.661 4.835 4.835 0 0 1 4.833 4.835zM169.957 232.736a3.108 3.108 0 0 1-6.216 0 3.104 3.104 0 0 1 3.105-3.105 3.107 3.107 0 0 1 3.11 3.105z" stroke="#0F343D" stroke-width="2" stroke-linecap="square"/>
        <path d="M88.91 181.561c4.137-.081 7.602-1.843 8.953-5.935.835-2.525.777-5.242.755-7.9-.158-19.948 2.799-39.169 6.777-58.638 3.616-17.703 8.462-35.562 15.194-52.496 4.185-10.528 8.992-21.23 14.897-31.077 3.044-5.078 6.4-9.976 10.127-14.577 1.666-2.055 4.288-4.111 5.541-6.412 1.033-1.896 1.026-3.6-1.422-2-7.288 4.774-12.235 12.344-17.28 19.251-5.437 7.441-10.51 15.05-14.98 23.12-9.344 16.872-16.446 34.88-22.724 53.083a690.72 690.72 0 0 0-1.85 5.44c-.494 1.467-.984 2.937-1.473 4.404-6.249 18.723-14.34 38.203-14.041 58.256.055 3.725.412 7.889 2.4 11.147 1.799 2.943 5.49 4.406 9.125 4.334zM2.021 206.644a.726.726 0 0 0-.294.586v38.1c0 .4.322.73.725.73h174.914a.73.73 0 0 0 .729-.73v-45.098M2.452 110.162c3.293 1.803 9.613 3.587 18.912-.984 14.305-7.031 35.325-1.942 39.451 1.937 4.12 3.879 8.486 2.183 12.85 0 4.362-2.179 11.773-2.481 15.25 2.735M93.429 76.403c-1.233 7.067-5.23 15.43-11.663 19.001-9.201 5.103-35.016 3.838-44.467.096-8.502-3.368-14.462-2.344-22.252 2.521-3.85 2.406-7.968 4.83-12.594 4.861" stroke="#0F343D" stroke-width="2" stroke-linecap="square"/>
        <path d="M102.295 75.6H1.727v131.63c0 .275.153.523.397.649a.742.742 0 0 0 .76-.061c2.174-1.608 5.59-3.523 9.496-3.523 2.142 0 4.204.593 6.14 1.772 2.186 1.252 3.87 1.833 5.295 1.833.984 0 1.73-.265 2.448-.517 1.11-.4 2.297-.685 4.068-.245 1.739.436 2.916.687 3.794.687 1.332 0 2.019-.574 3.055-1.435.448-.373.99-.825 1.728-1.363 2.099-1.523 23.06-2.509 26.499-2.509 3.33 0 6.44.871 8.992 2.532 2.783 1.812 4.216 2.486 5.289 2.486.909 0 1.441-.483 1.954-.944.417-.382.892-.808 1.728-1.144 3.185-1.274 5.473-.93 8.248 1.228.423.328.887.495 1.384.495.937 0 1.803-.586 2.801-1.27 1.355-.919 2.891-1.959 5.065-1.959 2.347 0 4.965 1.217 8.074 3.765.436.283.894.424 1.36.424 1.058 0 1.985-.725 3.05-1.56 1.73-1.356 3.885-3.051 7.81-3.051 4.39 0 8.744 2.377 13.154 2.94 5.1.652 10.265.55 15.392.443 5.044-.102 6.29-2.182 9.708-5.242 1.649-1.476 3.118-2.194 4.495-2.194 1.267 0 2.514.59 4.044 1.913 1.205 1.046 2.086 1.512 2.86 1.512.876 0 1.372-.572 1.77-1.033.1-.11.2-.224.306-.339.42-.412 1.349-.855 2.255-.855.634 0 1.156.217 1.537.649a.73.73 0 0 0 .735.22.735.735 0 0 0 .524-.566c.022-.113.052-.226.08-.341l.053-.228a.858.858 0 0 0 .02-.165V75.6h-63.647" stroke="#0F343D" stroke-width="2" stroke-linecap="square"/>
        <text font-family="Manrope-Bold, Manrope" font-size="13" font-weight="bold" letter-spacing="4" fill="#0F343D" transform="translate(1.727 1.89)">
                            <tspan x="55.148" y="271.782">DERMA</tspan>
                        </text>
    </g>
</svg>
