<svg width="341" height="287" viewBox="0 0 341 287" xmlns="http://www.w3.org/2000/svg">
    <g fill="none" fill-rule="evenodd">
        <path stroke="#0F343D" stroke-linecap="square" d="M332.889 41.87h5.973l1.12-9.706h-8.213z"/>
        <path d="M332.889 41.87h5.973l.775-6.717c-4.182-1.356-3.245 1.49-7.351 1.49l.603 5.227z" fill="#0F343D"/>
        <path stroke="#0F343D" stroke-linecap="square" d="M306.953 41.87h5.973l1.12-9.706h-8.213z"/>
        <path d="M306.953 41.87h5.973l.775-6.717c-4.181-1.356-3.244 1.49-7.35 1.49l.602 5.227z" fill="#0F343D"/>
        <path stroke="#0F343D" stroke-linecap="square" d="M281.018 41.87h5.973l1.12-9.706h-8.213z"/>
        <path d="M281.018 41.87h5.973l.775-6.717c-4.182-1.356-3.245 1.49-7.351 1.49l.603 5.227z" fill="#0F343D"/>
        <path stroke="#0F343D" stroke-linecap="square" d="M255.082 41.87h5.973l1.12-9.706h-8.213z"/>
        <path d="M255.082 41.87h5.973l.775-6.717c-4.181-1.356-3.244 1.49-7.35 1.49l.602 5.227z" fill="#0F343D"/>
        <path stroke="#0F343D" stroke-linecap="square" d="M229.147 41.87h5.973l1.12-9.706h-8.213z"/>
        <path d="M229.147 41.87h5.973l.775-6.717c-4.182-1.356-3.245 1.49-7.351 1.49l.603 5.227z" fill="#0F343D"/>
        <path stroke="#0F343D" stroke-linecap="square" d="M203.211 41.87h5.973l1.12-9.706h-8.213z"/>
        <path d="M203.211 41.87h5.973l.775-6.717c-4.181-1.356-3.244 1.49-7.35 1.49l.602 5.227z" fill="#0F343D"/>
        <path stroke="#0F343D" stroke-linecap="square" d="M177.276 41.87h5.973l1.12-9.706h-8.213z"/>
        <path d="M177.276 41.87h5.973l.775-6.717c-4.182-1.356-3.245 1.49-7.351 1.49l.603 5.227z" fill="#0F343D"/>
        <path stroke="#0F343D" stroke-linecap="square" d="M151.34 41.87h5.973l1.12-9.706h-8.212z"/>
        <path d="M151.34 41.87h5.973l.775-6.717c-4.181-1.356-3.244 1.49-7.35 1.49l.602 5.227z" fill="#0F343D"/>
        <path stroke="#0F343D" stroke-linecap="square" d="M125.405 41.87h5.973l1.12-9.706h-8.213z"/>
        <path d="M125.405 41.87h5.973l.775-6.717c-4.181-1.356-3.245 1.49-7.351 1.49l.603 5.227z" fill="#0F343D"/>
        <path stroke="#0F343D" stroke-linecap="square" d="M99.47 41.87h5.973l1.12-9.706H98.35z"/>
        <path d="M99.47 41.87h5.973l.775-6.717c-4.182-1.356-3.245 1.49-7.352 1.49l.604 5.227z" fill="#0F343D"/>
        <path stroke="#0F343D" stroke-linecap="square" d="M319.921 41.87h5.973l1.12-9.706h-8.213z"/>
        <path d="M319.921 41.87h5.973l.775-6.717c-4.181-1.356-3.245 1.49-7.351 1.49l.603 5.227z" fill="#0F343D"/>
        <path stroke="#0F343D" stroke-linecap="square" d="M293.986 41.87h5.973l1.12-9.706h-8.213z"/>
        <path d="M293.986 41.87h5.973l.775-6.717c-4.182-1.356-3.245 1.49-7.352 1.49l.604 5.227z" fill="#0F343D"/>
        <path stroke="#0F343D" stroke-linecap="square" d="M268.05 41.87h5.973l1.12-9.706h-8.213z"/>
        <path d="M268.05 41.87h5.973l.775-6.717c-4.181-1.356-3.245 1.49-7.351 1.49l.603 5.227z" fill="#0F343D"/>
        <path stroke="#0F343D" stroke-linecap="square" d="M242.115 41.87h5.973l1.12-9.706h-8.213z"/>
        <path d="M242.115 41.87h5.973l.775-6.717c-4.182-1.356-3.245 1.49-7.352 1.49l.604 5.227z" fill="#0F343D"/>
        <path stroke="#0F343D" stroke-linecap="square" d="M216.18 41.87h5.972l1.12-9.706h-8.213z"/>
        <path d="M216.18 41.87h5.972l.775-6.717c-4.181-1.356-3.245 1.49-7.351 1.49l.603 5.227z" fill="#0F343D"/>
        <path stroke="#0F343D" stroke-linecap="square" d="M190.244 41.87h5.973l1.12-9.706h-8.213z"/>
        <path d="M190.244 41.87h5.973l.775-6.717c-4.182-1.356-3.245 1.49-7.352 1.49l.604 5.227z" fill="#0F343D"/>
        <path stroke="#0F343D" stroke-linecap="square" d="M164.308 41.87h5.973l1.12-9.706h-8.213z"/>
        <path d="M164.308 41.87h5.973l.775-6.717c-4.181-1.356-3.245 1.49-7.351 1.49l.603 5.227z" fill="#0F343D"/>
        <path stroke="#0F343D" stroke-linecap="square" d="M138.373 41.87h5.973l1.12-9.706h-8.213z"/>
        <path d="M138.373 41.87h5.973l.775-6.717c-4.182-1.356-3.245 1.49-7.352 1.49l.604 5.227z" fill="#0F343D"/>
        <path stroke="#0F343D" stroke-linecap="square" d="M112.437 41.87h5.973l1.12-9.706h-8.213z"/>
        <path d="M112.437 41.87h5.973l.775-6.717c-4.181-1.356-3.245 1.49-7.351 1.49l.603 5.227z" fill="#0F343D"/>
        <path stroke="#0F343D" stroke-linecap="square" d="M86.502 41.87h5.973l1.12-9.706h-8.213z"/>
        <path d="M86.502 41.87h5.973l.775-6.717c-4.182-1.356-3.245 1.49-7.352 1.49l.604 5.227z" fill="#0F343D"/>
        <path stroke="#0F343D" stroke-linecap="square" d="M332.889 54.741h5.973l1.12-9.706h-8.213z"/>
        <path d="M332.889 54.741h5.973l.775-6.716c-4.182-1.357-3.245 1.489-7.351 1.489l.603 5.227z" fill="#0F343D"/>
        <path stroke="#0F343D" stroke-linecap="square" d="M306.953 54.741h5.973l1.12-9.706h-8.213z"/>
        <path d="M306.953 54.741h5.973l.775-6.716c-4.181-1.357-3.244 1.489-7.35 1.489l.602 5.227z" fill="#0F343D"/>
        <path stroke="#0F343D" stroke-linecap="square" d="M281.018 54.741h5.973l1.12-9.706h-8.213z"/>
        <path d="M281.018 54.741h5.973l.775-6.716c-4.182-1.357-3.245 1.489-7.351 1.489l.603 5.227z" fill="#0F343D"/>
        <path stroke="#0F343D" stroke-linecap="square" d="M255.082 54.741h5.973l1.12-9.706h-8.213z"/>
        <path d="M255.082 54.741h5.973l.775-6.716c-4.181-1.357-3.244 1.489-7.35 1.489l.602 5.227z" fill="#0F343D"/>
        <path stroke="#0F343D" stroke-linecap="square" d="M229.147 54.741h5.973l1.12-9.706h-8.213z"/>
        <path d="M229.147 54.741h5.973l.775-6.716c-4.182-1.357-3.245 1.489-7.351 1.489l.603 5.227z" fill="#0F343D"/>
        <path stroke="#0F343D" stroke-linecap="square" d="M203.211 54.741h5.973l1.12-9.706h-8.213z"/>
        <path d="M203.211 54.741h5.973l.775-6.716c-4.181-1.357-3.244 1.489-7.35 1.489l.602 5.227z" fill="#0F343D"/>
        <path stroke="#0F343D" stroke-linecap="square" d="M177.276 54.741h5.973l1.12-9.706h-8.213z"/>
        <path d="M177.276 54.741h5.973l.775-6.716c-4.182-1.357-3.245 1.489-7.351 1.489l.603 5.227z" fill="#0F343D"/>
        <path stroke="#0F343D" stroke-linecap="square" d="M151.34 54.741h5.973l1.12-9.706h-8.212z"/>
        <path d="M151.34 54.741h5.973l.775-6.716c-4.181-1.357-3.244 1.489-7.35 1.489l.602 5.227z" fill="#0F343D"/>
        <path stroke="#0F343D" stroke-linecap="square" d="M125.405 54.741h5.973l1.12-9.706h-8.213z"/>
        <path d="M125.405 54.741h5.973l.775-6.716c-4.181-1.357-3.245 1.489-7.351 1.489l.603 5.227z" fill="#0F343D"/>
        <path stroke="#0F343D" stroke-linecap="square" d="M99.47 54.741h5.973l1.12-9.706H98.35z"/>
        <path d="M99.47 54.741h5.973l.775-6.716c-4.182-1.357-3.245 1.489-7.352 1.489l.604 5.227z" fill="#0F343D"/>
        <path stroke="#0F343D" stroke-linecap="square" d="M319.921 54.741h5.973l1.12-9.706h-8.213z"/>
        <path d="M319.921 54.741h5.973l.775-6.716c-4.181-1.357-3.245 1.489-7.351 1.489l.603 5.227z" fill="#0F343D"/>
        <path stroke="#0F343D" stroke-linecap="square" d="M293.986 54.741h5.973l1.12-9.706h-8.213z"/>
        <path d="M293.986 54.741h5.973l.775-6.716c-4.182-1.357-3.245 1.489-7.352 1.489l.604 5.227z" fill="#0F343D"/>
        <path stroke="#0F343D" stroke-linecap="square" d="M268.05 54.741h5.973l1.12-9.706h-8.213z"/>
        <path d="M268.05 54.741h5.973l.775-6.716c-4.181-1.357-3.245 1.489-7.351 1.489l.603 5.227z" fill="#0F343D"/>
        <path stroke="#0F343D" stroke-linecap="square" d="M242.115 54.741h5.973l1.12-9.706h-8.213z"/>
        <path d="M242.115 54.741h5.973l.775-6.716c-4.182-1.357-3.245 1.489-7.352 1.489l.604 5.227z" fill="#0F343D"/>
        <path stroke="#0F343D" stroke-linecap="square" d="M216.18 54.741h5.972l1.12-9.706h-8.213z"/>
        <path d="M216.18 54.741h5.972l.775-6.716c-4.181-1.357-3.245 1.489-7.351 1.489l.603 5.227z" fill="#0F343D"/>
        <path stroke="#0F343D" stroke-linecap="square" d="M190.244 54.741h5.973l1.12-9.706h-8.213z"/>
        <path d="M190.244 54.741h5.973l.775-6.716c-4.182-1.357-3.245 1.489-7.352 1.489l.604 5.227z" fill="#0F343D"/>
        <path stroke="#0F343D" stroke-linecap="square" d="M164.308 54.741h5.973l1.12-9.706h-8.213z"/>
        <path d="M164.308 54.741h5.973l.775-6.716c-4.181-1.357-3.245 1.489-7.351 1.489l.603 5.227z" fill="#0F343D"/>
        <path stroke="#0F343D" stroke-linecap="square" d="M138.373 54.741h5.973l1.12-9.706h-8.213z"/>
        <path d="M138.373 54.741h5.973l.775-6.716c-4.182-1.357-3.245 1.489-7.352 1.489l.604 5.227z" fill="#0F343D"/>
        <path stroke="#0F343D" stroke-linecap="square" d="M112.437 54.741h5.973l1.12-9.706h-8.213z"/>
        <path d="M112.437 54.741h5.973l.775-6.716c-4.181-1.357-3.245 1.489-7.351 1.489l.603 5.227z" fill="#0F343D"/>
        <path stroke="#0F343D" stroke-linecap="square" d="M86.502 54.645h5.973l1.12-9.706h-8.213z"/>
        <path d="M86.502 54.645h5.973l.775-6.716c-4.182-1.357-3.245 1.489-7.352 1.489l.604 5.227z" fill="#0F343D"/>
        <path stroke="#0F343D" stroke-linecap="square" d="M332.889 67.613h5.973l1.12-9.706h-8.213z"/>
        <path d="M332.889 67.613h5.973l.775-6.717c-4.182-1.356-3.245 1.49-7.351 1.49l.603 5.227z" fill="#0F343D"/>
        <path stroke="#0F343D" stroke-linecap="square" d="M306.953 67.613h5.973l1.12-9.706h-8.213z"/>
        <path d="M306.953 67.613h5.973l.775-6.717c-4.181-1.356-3.244 1.49-7.35 1.49l.602 5.227z" fill="#0F343D"/>
        <path stroke="#0F343D" stroke-linecap="square" d="M281.018 67.613h5.973l1.12-9.706h-8.213z"/>
        <path d="M281.018 67.613h5.973l.775-6.717c-4.182-1.356-3.245 1.49-7.351 1.49l.603 5.227z" fill="#0F343D"/>
        <path stroke="#0F343D" stroke-linecap="square" d="M255.082 67.613h5.973l1.12-9.706h-8.213z"/>
        <path d="M255.082 67.613h5.973l.775-6.717c-4.181-1.356-3.244 1.49-7.35 1.49l.602 5.227z" fill="#0F343D"/>
        <path stroke="#0F343D" stroke-linecap="square" d="M229.147 67.613h5.973l1.12-9.706h-8.213z"/>
        <path d="M229.147 67.613h5.973l.775-6.717c-4.182-1.356-3.245 1.49-7.351 1.49l.603 5.227z" fill="#0F343D"/>
        <path stroke="#0F343D" stroke-linecap="square" d="M203.211 67.613h5.973l1.12-9.706h-8.213z"/>
        <path d="M203.211 67.613h5.973l.775-6.717c-4.181-1.356-3.244 1.49-7.35 1.49l.602 5.227z" fill="#0F343D"/>
        <path stroke="#0F343D" stroke-linecap="square" d="M177.276 67.613h5.973l1.12-9.706h-8.213z"/>
        <path d="M177.276 67.613h5.973l.775-6.717c-4.182-1.356-3.245 1.49-7.351 1.49l.603 5.227z" fill="#0F343D"/>
        <path stroke="#0F343D" stroke-linecap="square" d="M151.34 67.613h5.973l1.12-9.706h-8.212z"/>
        <path d="M151.34 67.613h5.973l.775-6.717c-4.181-1.356-3.244 1.49-7.35 1.49l.602 5.227z" fill="#0F343D"/>
        <path stroke="#0F343D" stroke-linecap="square" d="M125.405 67.613h5.973l1.12-9.706h-8.213z"/>
        <path d="M125.405 67.613h5.973l.775-6.717c-4.181-1.356-3.245 1.49-7.351 1.49l.603 5.227z" fill="#0F343D"/>
        <path stroke="#0F343D" stroke-linecap="square" d="M99.47 67.613h5.973l1.12-9.706H98.35z"/>
        <path d="M99.47 67.613h5.973l.775-6.717c-4.182-1.356-3.245 1.49-7.352 1.49l.604 5.227z" fill="#0F343D"/>
        <path stroke="#0F343D" stroke-linecap="square" d="M319.921 67.613h5.973l1.12-9.706h-8.213z"/>
        <path d="M319.921 67.613h5.973l.775-6.717c-4.181-1.356-3.245 1.49-7.351 1.49l.603 5.227z" fill="#0F343D"/>
        <path stroke="#0F343D" stroke-linecap="square" d="M293.986 67.613h5.973l1.12-9.706h-8.213z"/>
        <path d="M293.986 67.613h5.973l.775-6.717c-4.182-1.356-3.245 1.49-7.352 1.49l.604 5.227z" fill="#0F343D"/>
        <path stroke="#0F343D" stroke-linecap="square" d="M268.05 67.613h5.973l1.12-9.706h-8.213z"/>
        <path d="M268.05 67.613h5.973l.775-6.717c-4.181-1.356-3.245 1.49-7.351 1.49l.603 5.227z" fill="#0F343D"/>
        <path stroke="#0F343D" stroke-linecap="square" d="M242.115 67.613h5.973l1.12-9.706h-8.213z"/>
        <path d="M242.115 67.613h5.973l.775-6.717c-4.182-1.356-3.245 1.49-7.352 1.49l.604 5.227z" fill="#0F343D"/>
        <path stroke="#0F343D" stroke-linecap="square" d="M216.18 67.613h5.972l1.12-9.706h-8.213z"/>
        <path d="M216.18 67.613h5.972l.775-6.717c-4.181-1.356-3.245 1.49-7.351 1.49l.603 5.227z" fill="#0F343D"/>
        <path stroke="#0F343D" stroke-linecap="square" d="M190.244 67.613h5.973l1.12-9.706h-8.213z"/>
        <path d="M190.244 67.613h5.973l.775-6.717c-4.182-1.356-3.245 1.49-7.352 1.49l.604 5.227z" fill="#0F343D"/>
        <path stroke="#0F343D" stroke-linecap="square" d="M164.308 67.613h5.973l1.12-9.706h-8.213z"/>
        <path d="M164.308 67.613h5.973l.775-6.717c-4.181-1.356-3.245 1.49-7.351 1.49l.603 5.227z" fill="#0F343D"/>
        <path stroke="#0F343D" stroke-linecap="square" d="M138.373 67.613h5.973l1.12-9.706h-8.213z"/>
        <path d="M138.373 67.613h5.973l.775-6.717c-4.182-1.356-3.245 1.49-7.352 1.49l.604 5.227z" fill="#0F343D"/>
        <path stroke="#0F343D" stroke-linecap="square" d="M112.437 67.613h5.973l1.12-9.706h-8.213z"/>
        <path d="M112.437 67.613h5.973l.775-6.717c-4.181-1.356-3.245 1.49-7.351 1.49l.603 5.227z" fill="#0F343D"/>
        <path stroke="#0F343D" stroke-linecap="square" d="M86.502 67.421h5.973l1.12-9.706h-8.213z"/>
        <path d="M86.502 67.421h5.973l.775-6.717c-4.182-1.356-3.245 1.49-7.352 1.49l.604 5.227z" fill="#0F343D"/>
        <path stroke="#0F343D" stroke-linecap="square" d="M332.889 80.485h5.973l1.12-9.706h-8.213z"/>
        <path d="M332.889 80.485h5.973l.775-6.717c-4.182-1.356-3.245 1.49-7.351 1.49l.603 5.227z" fill="#0F343D"/>
        <path stroke="#0F343D" stroke-linecap="square" d="M306.953 80.485h5.973l1.12-9.706h-8.213z"/>
        <path d="M306.953 80.485h5.973l.775-6.717c-4.181-1.356-3.244 1.49-7.35 1.49l.602 5.227z" fill="#0F343D"/>
        <path stroke="#0F343D" stroke-linecap="square" d="M281.018 80.485h5.973l1.12-9.706h-8.213z"/>
        <path d="M281.018 80.485h5.973l.775-6.717c-4.182-1.356-3.245 1.49-7.351 1.49l.603 5.227z" fill="#0F343D"/>
        <path stroke="#0F343D" stroke-linecap="square" d="M255.082 80.485h5.973l1.12-9.706h-8.213z"/>
        <path d="M255.082 80.485h5.973l.775-6.717c-4.181-1.356-3.244 1.49-7.35 1.49l.602 5.227z" fill="#0F343D"/>
        <path stroke="#0F343D" stroke-linecap="square" d="M229.147 80.485h5.973l1.12-9.706h-8.213z"/>
        <path d="M229.147 80.485h5.973l.775-6.717c-4.182-1.356-3.245 1.49-7.351 1.49l.603 5.227z" fill="#0F343D"/>
        <path stroke="#0F343D" stroke-linecap="square" d="M203.211 80.485h5.973l1.12-9.706h-8.213z"/>
        <path d="M203.211 80.485h5.973l.775-6.717c-4.181-1.356-3.244 1.49-7.35 1.49l.602 5.227z" fill="#0F343D"/>
        <path stroke="#0F343D" stroke-linecap="square" d="M177.276 80.485h5.973l1.12-9.706h-8.213z"/>
        <path d="M177.276 80.485h5.973l.775-6.717c-4.182-1.356-3.245 1.49-7.351 1.49l.603 5.227z" fill="#0F343D"/>
        <path stroke="#0F343D" stroke-linecap="square" d="M151.34 80.485h5.973l1.12-9.706h-8.212z"/>
        <path d="M151.34 80.485h5.973l.775-6.717c-4.181-1.356-3.244 1.49-7.35 1.49l.602 5.227z" fill="#0F343D"/>
        <path stroke="#0F343D" stroke-linecap="square" d="M125.405 80.485h5.973l1.12-9.706h-8.213z"/>
        <path d="M125.405 80.485h5.973l.775-6.717c-4.181-1.356-3.245 1.49-7.351 1.49l.603 5.227z" fill="#0F343D"/>
        <path stroke="#0F343D" stroke-linecap="square" d="M99.47 80.485h5.973l1.12-9.706H98.35z"/>
        <path d="M99.47 80.485h5.973l.775-6.717c-4.182-1.356-3.245 1.49-7.352 1.49l.604 5.227z" fill="#0F343D"/>
        <path stroke="#0F343D" stroke-linecap="square" d="M319.921 80.485h5.973l1.12-9.706h-8.213z"/>
        <path d="M319.921 80.485h5.973l.775-6.717c-4.181-1.356-3.245 1.49-7.351 1.49l.603 5.227z" fill="#0F343D"/>
        <path stroke="#0F343D" stroke-linecap="square" d="M293.986 80.485h5.973l1.12-9.706h-8.213z"/>
        <path d="M293.986 80.485h5.973l.775-6.717c-4.182-1.356-3.245 1.49-7.352 1.49l.604 5.227z" fill="#0F343D"/>
        <path stroke="#0F343D" stroke-linecap="square" d="M268.05 80.485h5.973l1.12-9.706h-8.213z"/>
        <path d="M268.05 80.485h5.973l.775-6.717c-4.181-1.356-3.245 1.49-7.351 1.49l.603 5.227z" fill="#0F343D"/>
        <path stroke="#0F343D" stroke-linecap="square" d="M242.115 80.485h5.973l1.12-9.706h-8.213z"/>
        <path d="M242.115 80.485h5.973l.775-6.717c-4.182-1.356-3.245 1.49-7.352 1.49l.604 5.227z" fill="#0F343D"/>
        <path stroke="#0F343D" stroke-linecap="square" d="M216.18 80.485h5.972l1.12-9.706h-8.213z"/>
        <path d="M216.18 80.485h5.972l.775-6.717c-4.181-1.356-3.245 1.49-7.351 1.49l.603 5.227z" fill="#0F343D"/>
        <path stroke="#0F343D" stroke-linecap="square" d="M190.244 80.485h5.973l1.12-9.706h-8.213z"/>
        <path d="M190.244 80.485h5.973l.775-6.717c-4.182-1.356-3.245 1.49-7.352 1.49l.604 5.227z" fill="#0F343D"/>
        <path stroke="#0F343D" stroke-linecap="square" d="M164.308 80.485h5.973l1.12-9.706h-8.213z"/>
        <path d="M164.308 80.485h5.973l.775-6.717c-4.181-1.356-3.245 1.49-7.351 1.49l.603 5.227z" fill="#0F343D"/>
        <path stroke="#0F343D" stroke-linecap="square" d="M138.373 80.485h5.973l1.12-9.706h-8.213z"/>
        <path d="M138.373 80.485h5.973l.775-6.717c-4.182-1.356-3.245 1.49-7.352 1.49l.604 5.227z" fill="#0F343D"/>
        <path stroke="#0F343D" stroke-linecap="square" d="M112.437 80.485h5.973l1.12-9.706h-8.213z"/>
        <path d="M112.437 80.485h5.973l.775-6.717c-4.181-1.356-3.245 1.49-7.351 1.49l.603 5.227z" fill="#0F343D"/>
        <path stroke="#0F343D" stroke-linecap="square" d="M86.502 80.197h5.973l1.12-9.706h-8.213z"/>
        <path d="M86.502 80.197h5.973l.775-6.717c-4.182-1.356-3.245 1.489-7.352 1.489l.604 5.228z" fill="#0F343D"/>
        <path stroke="#0F343D" stroke-linecap="square" d="M332.889 93.357h5.973l1.12-9.707h-8.213z"/>
        <path d="M332.889 93.357h5.973l.775-6.717c-4.182-1.357-3.245 1.489-7.351 1.489l.603 5.228z" fill="#0F343D"/>
        <path stroke="#0F343D" stroke-linecap="square" d="M306.953 93.357h5.973l1.12-9.707h-8.213z"/>
        <path d="M306.953 93.357h5.973l.775-6.717c-4.181-1.357-3.244 1.489-7.35 1.489l.602 5.228z" fill="#0F343D"/>
        <path stroke="#0F343D" stroke-linecap="square" d="M281.018 93.357h5.973l1.12-9.707h-8.213z"/>
        <path d="M281.018 93.357h5.973l.775-6.717c-4.182-1.357-3.245 1.489-7.351 1.489l.603 5.228z" fill="#0F343D"/>
        <path stroke="#0F343D" stroke-linecap="square" d="M255.082 93.357h5.973l1.12-9.707h-8.213z"/>
        <path d="M255.082 93.357h5.973l.775-6.717c-4.181-1.357-3.244 1.489-7.35 1.489l.602 5.228z" fill="#0F343D"/>
        <path stroke="#0F343D" stroke-linecap="square" d="M229.147 93.357h5.973l1.12-9.707h-8.213z"/>
        <path d="M229.147 93.357h5.973l.775-6.717c-4.182-1.357-3.245 1.489-7.351 1.489l.603 5.228z" fill="#0F343D"/>
        <path stroke="#0F343D" stroke-linecap="square" d="M203.211 93.357h5.973l1.12-9.707h-8.213z"/>
        <path d="M203.211 93.357h5.973l.775-6.717c-4.181-1.357-3.244 1.489-7.35 1.489l.602 5.228z" fill="#0F343D"/>
        <path stroke="#0F343D" stroke-linecap="square" d="M177.276 93.357h5.973l1.12-9.707h-8.213z"/>
        <path d="M177.276 93.357h5.973l.775-6.717c-4.182-1.357-3.245 1.489-7.351 1.489l.603 5.228z" fill="#0F343D"/>
        <path stroke="#0F343D" stroke-linecap="square" d="M151.34 93.357h5.973l1.12-9.707h-8.212z"/>
        <path d="M151.34 93.357h5.973l.775-6.717c-4.181-1.357-3.244 1.489-7.35 1.489l.602 5.228z" fill="#0F343D"/>
        <path stroke="#0F343D" stroke-linecap="square" d="M125.405 93.357h5.973l1.12-9.707h-8.213z"/>
        <path d="M125.405 93.357h5.973l.775-6.717c-4.181-1.357-3.245 1.489-7.351 1.489l.603 5.228z" fill="#0F343D"/>
        <path stroke="#0F343D" stroke-linecap="square" d="M99.47 93.357h5.973l1.12-9.707H98.35z"/>
        <path d="M99.47 93.357h5.973l.775-6.717c-4.182-1.357-3.245 1.489-7.352 1.489l.604 5.228z" fill="#0F343D"/>
        <path stroke="#0F343D" stroke-linecap="square" d="M319.921 93.357h5.973l1.12-9.707h-8.213z"/>
        <path d="M319.921 93.357h5.973l.775-6.717c-4.181-1.357-3.245 1.489-7.351 1.489l.603 5.228z" fill="#0F343D"/>
        <path stroke="#0F343D" stroke-linecap="square" d="M293.986 93.357h5.973l1.12-9.707h-8.213z"/>
        <path d="M293.986 93.357h5.973l.775-6.717c-4.182-1.357-3.245 1.489-7.352 1.489l.604 5.228z" fill="#0F343D"/>
        <path stroke="#0F343D" stroke-linecap="square" d="M268.05 93.357h5.973l1.12-9.707h-8.213z"/>
        <path d="M268.05 93.357h5.973l.775-6.717c-4.181-1.357-3.245 1.489-7.351 1.489l.603 5.228z" fill="#0F343D"/>
        <path stroke="#0F343D" stroke-linecap="square" d="M242.115 93.357h5.973l1.12-9.707h-8.213z"/>
        <path d="M242.115 93.357h5.973l.775-6.717c-4.182-1.357-3.245 1.489-7.352 1.489l.604 5.228z" fill="#0F343D"/>
        <path stroke="#0F343D" stroke-linecap="square" d="M216.18 93.357h5.972l1.12-9.707h-8.213z"/>
        <path d="M216.18 93.357h5.972l.775-6.717c-4.181-1.357-3.245 1.489-7.351 1.489l.603 5.228z" fill="#0F343D"/>
        <path stroke="#0F343D" stroke-linecap="square" d="M190.244 93.357h5.973l1.12-9.707h-8.213z"/>
        <path d="M190.244 93.357h5.973l.775-6.717c-4.182-1.357-3.245 1.489-7.352 1.489l.604 5.228z" fill="#0F343D"/>
        <path stroke="#0F343D" stroke-linecap="square" d="M164.308 93.357h5.973l1.12-9.707h-8.213z"/>
        <path d="M164.308 93.357h5.973l.775-6.717c-4.181-1.357-3.245 1.489-7.351 1.489l.603 5.228z" fill="#0F343D"/>
        <path stroke="#0F343D" stroke-linecap="square" d="M138.373 93.357h5.973l1.12-9.707h-8.213z"/>
        <path d="M138.373 93.357h5.973l.775-6.717c-4.182-1.357-3.245 1.489-7.352 1.489l.604 5.228z" fill="#0F343D"/>
        <path stroke="#0F343D" stroke-linecap="square" d="M112.437 93.357h5.973l1.12-9.707h-8.213z"/>
        <path d="M112.437 93.357h5.973l.775-6.717c-4.181-1.357-3.245 1.489-7.351 1.489l.603 5.228z" fill="#0F343D"/>
        <path stroke="#0F343D" stroke-linecap="square" d="M86.502 92.972h5.973l1.12-9.706h-8.213z"/>
        <path d="M86.502 92.972h5.973l.775-6.717c-4.182-1.356-3.245 1.49-7.352 1.49l.604 5.227z" fill="#0F343D"/>
        <path stroke="#0F343D" stroke-linecap="square" d="M332.889 106.228h5.973l1.12-9.706h-8.213z"/>
        <path d="M332.889 106.228h5.973l.775-6.717c-4.182-1.356-3.245 1.49-7.351 1.49l.603 5.227z" fill="#0F343D"/>
        <path stroke="#0F343D" stroke-linecap="square" d="M306.953 106.228h5.973l1.12-9.706h-8.213z"/>
        <path d="M306.953 106.228h5.973l.775-6.717c-4.181-1.356-3.244 1.49-7.35 1.49l.602 5.227z" fill="#0F343D"/>
        <path stroke="#0F343D" stroke-linecap="square" d="M281.018 106.228h5.973l1.12-9.706h-8.213z"/>
        <path d="M281.018 106.228h5.973l.775-6.717c-4.182-1.356-3.245 1.49-7.351 1.49l.603 5.227z" fill="#0F343D"/>
        <path stroke="#0F343D" stroke-linecap="square" d="M255.082 106.228h5.973l1.12-9.706h-8.213z"/>
        <path d="M255.082 106.228h5.973l.775-6.717c-4.181-1.356-3.244 1.49-7.35 1.49l.602 5.227z" fill="#0F343D"/>
        <path stroke="#0F343D" stroke-linecap="square" d="M229.147 106.228h5.973l1.12-9.706h-8.213z"/>
        <path d="M229.147 106.228h5.973l.775-6.717c-4.182-1.356-3.245 1.49-7.351 1.49l.603 5.227z" fill="#0F343D"/>
        <path stroke="#0F343D" stroke-linecap="square" d="M203.211 106.228h5.973l1.12-9.706h-8.213z"/>
        <path d="M203.211 106.228h5.973l.775-6.717c-4.181-1.356-3.244 1.49-7.35 1.49l.602 5.227z" fill="#0F343D"/>
        <path stroke="#0F343D" stroke-linecap="square" d="M177.276 106.228h5.973l1.12-9.706h-8.213z"/>
        <path d="M177.276 106.228h5.973l.775-6.717c-4.182-1.356-3.245 1.49-7.351 1.49l.603 5.227z" fill="#0F343D"/>
        <path stroke="#0F343D" stroke-linecap="square" d="M151.34 106.228h5.973l1.12-9.706h-8.212z"/>
        <path d="M151.34 106.228h5.973l.775-6.717c-4.181-1.356-3.244 1.49-7.35 1.49l.602 5.227z" fill="#0F343D"/>
        <path stroke="#0F343D" stroke-linecap="square" d="M125.405 106.228h5.973l1.12-9.706h-8.213z"/>
        <path d="M125.405 106.228h5.973l.775-6.717c-4.181-1.356-3.245 1.49-7.351 1.49l.603 5.227z" fill="#0F343D"/>
        <path stroke="#0F343D" stroke-linecap="square" d="M99.47 106.228h5.973l1.12-9.706H98.35z"/>
        <path d="M99.47 106.228h5.973l.775-6.717c-4.182-1.356-3.245 1.49-7.352 1.49l.604 5.227z" fill="#0F343D"/>
        <path stroke="#0F343D" stroke-linecap="square" d="M319.921 106.228h5.973l1.12-9.706h-8.213z"/>
        <path d="M319.921 106.228h5.973l.775-6.717c-4.181-1.356-3.245 1.49-7.351 1.49l.603 5.227z" fill="#0F343D"/>
        <path stroke="#0F343D" stroke-linecap="square" d="M293.986 106.228h5.973l1.12-9.706h-8.213z"/>
        <path d="M293.986 106.228h5.973l.775-6.717c-4.182-1.356-3.245 1.49-7.352 1.49l.604 5.227z" fill="#0F343D"/>
        <path stroke="#0F343D" stroke-linecap="square" d="M268.05 106.228h5.973l1.12-9.706h-8.213z"/>
        <path d="M268.05 106.228h5.973l.775-6.717c-4.181-1.356-3.245 1.49-7.351 1.49l.603 5.227z" fill="#0F343D"/>
        <path stroke="#0F343D" stroke-linecap="square" d="M242.115 106.228h5.973l1.12-9.706h-8.213z"/>
        <path d="M242.115 106.228h5.973l.775-6.717c-4.182-1.356-3.245 1.49-7.352 1.49l.604 5.227z" fill="#0F343D"/>
        <path stroke="#0F343D" stroke-linecap="square" d="M216.18 106.228h5.972l1.12-9.706h-8.213z"/>
        <path d="M216.18 106.228h5.972l.775-6.717c-4.181-1.356-3.245 1.49-7.351 1.49l.603 5.227z" fill="#0F343D"/>
        <path stroke="#0F343D" stroke-linecap="square" d="M190.244 106.228h5.973l1.12-9.706h-8.213z"/>
        <path d="M190.244 106.228h5.973l.775-6.717c-4.182-1.356-3.245 1.49-7.352 1.49l.604 5.227z" fill="#0F343D"/>
        <path stroke="#0F343D" stroke-linecap="square" d="M164.308 106.228h5.973l1.12-9.706h-8.213z"/>
        <path d="M164.308 106.228h5.973l.775-6.717c-4.181-1.356-3.245 1.49-7.351 1.49l.603 5.227z" fill="#0F343D"/>
        <path stroke="#0F343D" stroke-linecap="square" d="M138.373 106.228h5.973l1.12-9.706h-8.213z"/>
        <path d="M138.373 106.228h5.973l.775-6.717c-4.182-1.356-3.245 1.49-7.352 1.49l.604 5.227z" fill="#0F343D"/>
        <path stroke="#0F343D" stroke-linecap="square" d="M112.437 106.228h5.973l1.12-9.706h-8.213z"/>
        <path d="M112.437 106.228h5.973l.775-6.717c-4.181-1.356-3.245 1.49-7.351 1.49l.603 5.227z" fill="#0F343D"/>
        <path stroke="#0F343D" stroke-linecap="square" d="M86.502 106.66h5.973l1.12-9.706h-8.213z"/>
        <path d="M86.502 106.66h5.973l.775-6.716c-4.182-1.357-3.245 1.489-7.352 1.489l.604 5.227z" fill="#0F343D"/>
        <path stroke="#0F343D" stroke-linecap="square" d="M332.889 119.1h5.973l1.12-9.706h-8.213z"/>
        <path d="M332.889 119.1h5.973l.775-6.717c-4.182-1.356-3.245 1.49-7.351 1.49l.603 5.227z" fill="#0F343D"/>
        <path stroke="#0F343D" stroke-linecap="square" d="M306.953 119.1h5.973l1.12-9.706h-8.213z"/>
        <path d="M306.953 119.1h5.973l.775-6.717c-4.181-1.356-3.244 1.49-7.35 1.49l.602 5.227z" fill="#0F343D"/>
        <path stroke="#0F343D" stroke-linecap="square" d="M281.018 119.1h5.973l1.12-9.706h-8.213z"/>
        <path d="M281.018 119.1h5.973l.775-6.717c-4.182-1.356-3.245 1.49-7.351 1.49l.603 5.227z" fill="#0F343D"/>
        <path stroke="#0F343D" stroke-linecap="square" d="M255.082 119.1h5.973l1.12-9.706h-8.213z"/>
        <path d="M255.082 119.1h5.973l.775-6.717c-4.181-1.356-3.244 1.49-7.35 1.49l.602 5.227z" fill="#0F343D"/>
        <path stroke="#0F343D" stroke-linecap="square" d="M229.147 119.1h5.973l1.12-9.706h-8.213z"/>
        <path d="M229.147 119.1h5.973l.775-6.717c-4.182-1.356-3.245 1.49-7.351 1.49l.603 5.227z" fill="#0F343D"/>
        <path stroke="#0F343D" stroke-linecap="square" d="M203.211 119.1h5.973l1.12-9.706h-8.213z"/>
        <path d="M203.211 119.1h5.973l.775-6.717c-4.181-1.356-3.244 1.49-7.35 1.49l.602 5.227z" fill="#0F343D"/>
        <path stroke="#0F343D" stroke-linecap="square" d="M177.276 119.1h5.973l1.12-9.706h-8.213z"/>
        <path d="M177.276 119.1h5.973l.775-6.717c-4.182-1.356-3.245 1.49-7.351 1.49l.603 5.227z" fill="#0F343D"/>
        <path stroke="#0F343D" stroke-linecap="square" d="M151.34 119.1h5.973l1.12-9.706h-8.212z"/>
        <path d="M151.34 119.1h5.973l.775-6.717c-4.181-1.356-3.244 1.49-7.35 1.49l.602 5.227z" fill="#0F343D"/>
        <path stroke="#0F343D" stroke-linecap="square" d="M125.405 119.1h5.973l1.12-9.706h-8.213z"/>
        <path d="M125.405 119.1h5.973l.775-6.717c-4.181-1.356-3.245 1.49-7.351 1.49l.603 5.227z" fill="#0F343D"/>
        <path stroke="#0F343D" stroke-linecap="square" d="M99.47 119.1h5.973l1.12-9.706H98.35z"/>
        <path d="M99.47 119.1h5.973l.775-6.717c-4.182-1.356-3.245 1.49-7.352 1.49l.604 5.227z" fill="#0F343D"/>
        <path stroke="#0F343D" stroke-linecap="square" d="M319.921 119.1h5.973l1.12-9.706h-8.213z"/>
        <path d="M319.921 119.1h5.973l.775-6.717c-4.181-1.356-3.245 1.49-7.351 1.49l.603 5.227z" fill="#0F343D"/>
        <path stroke="#0F343D" stroke-linecap="square" d="M293.986 119.1h5.973l1.12-9.706h-8.213z"/>
        <path d="M293.986 119.1h5.973l.775-6.717c-4.182-1.356-3.245 1.49-7.352 1.49l.604 5.227z" fill="#0F343D"/>
        <path stroke="#0F343D" stroke-linecap="square" d="M268.05 119.1h5.973l1.12-9.706h-8.213z"/>
        <path d="M268.05 119.1h5.973l.775-6.717c-4.181-1.356-3.245 1.49-7.351 1.49l.603 5.227z" fill="#0F343D"/>
        <path stroke="#0F343D" stroke-linecap="square" d="M242.115 119.1h5.973l1.12-9.706h-8.213z"/>
        <path d="M242.115 119.1h5.973l.775-6.717c-4.182-1.356-3.245 1.49-7.352 1.49l.604 5.227z" fill="#0F343D"/>
        <path stroke="#0F343D" stroke-linecap="square" d="M216.18 119.1h5.972l1.12-9.706h-8.213z"/>
        <path d="M216.18 119.1h5.972l.775-6.717c-4.181-1.356-3.245 1.49-7.351 1.49l.603 5.227z" fill="#0F343D"/>
        <path stroke="#0F343D" stroke-linecap="square" d="M190.244 119.1h5.973l1.12-9.706h-8.213z"/>
        <path d="M190.244 119.1h5.973l.775-6.717c-4.182-1.356-3.245 1.49-7.352 1.49l.604 5.227z" fill="#0F343D"/>
        <path stroke="#0F343D" stroke-linecap="square" d="M164.308 119.1h5.973l1.12-9.706h-8.213z"/>
        <path d="M164.308 119.1h5.973l.775-6.717c-4.181-1.356-3.245 1.49-7.351 1.49l.603 5.227z" fill="#0F343D"/>
        <path stroke="#0F343D" stroke-linecap="square" d="M138.373 119.1h5.973l1.12-9.706h-8.213z"/>
        <path d="M138.373 119.1h5.973l.775-6.717c-4.182-1.356-3.245 1.49-7.352 1.49l.604 5.227z" fill="#0F343D"/>
        <path stroke="#0F343D" stroke-linecap="square" d="M112.437 119.1h5.973l1.12-9.706h-8.213z"/>
        <path d="M112.437 119.1h5.973l.775-6.717c-4.181-1.356-3.245 1.49-7.351 1.49l.603 5.227z" fill="#0F343D"/>
        <path stroke="#0F343D" stroke-linecap="square" d="M86.502 119.436h5.973l1.12-9.706h-8.213z"/>
        <path d="M86.502 119.436h5.973l.775-6.717c-4.182-1.356-3.245 1.49-7.352 1.49l.604 5.227z" fill="#0F343D"/>
        <path stroke="#0F343D" stroke-linecap="square" d="M332.889 131.972h5.973l1.12-9.707h-8.213z"/>
        <path d="M332.889 131.972h5.973l.775-6.717c-4.182-1.356-3.245 1.489-7.351 1.489l.603 5.228z" fill="#0F343D"/>
        <path stroke="#0F343D" stroke-linecap="square" d="M306.953 131.972h5.973l1.12-9.707h-8.213z"/>
        <path d="M306.953 131.972h5.973l.775-6.717c-4.181-1.356-3.244 1.489-7.35 1.489l.602 5.228z" fill="#0F343D"/>
        <path stroke="#0F343D" stroke-linecap="square" d="M281.018 131.972h5.973l1.12-9.707h-8.213z"/>
        <path d="M281.018 131.972h5.973l.775-6.717c-4.182-1.356-3.245 1.489-7.351 1.489l.603 5.228z" fill="#0F343D"/>
        <path stroke="#0F343D" stroke-linecap="square" d="M255.082 131.972h5.973l1.12-9.707h-8.213z"/>
        <path d="M255.082 131.972h5.973l.775-6.717c-4.181-1.356-3.244 1.489-7.35 1.489l.602 5.228z" fill="#0F343D"/>
        <path stroke="#0F343D" stroke-linecap="square" d="M229.147 131.972h5.973l1.12-9.707h-8.213z"/>
        <path d="M229.147 131.972h5.973l.775-6.717c-4.182-1.356-3.245 1.489-7.351 1.489l.603 5.228z" fill="#0F343D"/>
        <path stroke="#0F343D" stroke-linecap="square" d="M203.211 131.972h5.973l1.12-9.707h-8.213z"/>
        <path d="M203.211 131.972h5.973l.775-6.717c-4.181-1.356-3.244 1.489-7.35 1.489l.602 5.228z" fill="#0F343D"/>
        <path stroke="#0F343D" stroke-linecap="square" d="M177.276 131.972h5.973l1.12-9.707h-8.213z"/>
        <path d="M177.276 131.972h5.973l.775-6.717c-4.182-1.356-3.245 1.489-7.351 1.489l.603 5.228z" fill="#0F343D"/>
        <path stroke="#0F343D" stroke-linecap="square" d="M151.34 131.972h5.973l1.12-9.707h-8.212z"/>
        <path d="M151.34 131.972h5.973l.775-6.717c-4.181-1.356-3.244 1.489-7.35 1.489l.602 5.228z" fill="#0F343D"/>
        <path stroke="#0F343D" stroke-linecap="square" d="M125.405 131.972h5.973l1.12-9.707h-8.213z"/>
        <path d="M125.405 131.972h5.973l.775-6.717c-4.181-1.356-3.245 1.489-7.351 1.489l.603 5.228z" fill="#0F343D"/>
        <path stroke="#0F343D" stroke-linecap="square" d="M99.47 131.972h5.973l1.12-9.707H98.35z"/>
        <path d="M99.47 131.972h5.973l.775-6.717c-4.182-1.356-3.245 1.489-7.352 1.489l.604 5.228z" fill="#0F343D"/>
        <path stroke="#0F343D" stroke-linecap="square" d="M319.921 131.972h5.973l1.12-9.707h-8.213z"/>
        <path d="M319.921 131.972h5.973l.775-6.717c-4.181-1.356-3.245 1.489-7.351 1.489l.603 5.228z" fill="#0F343D"/>
        <path stroke="#0F343D" stroke-linecap="square" d="M293.986 131.972h5.973l1.12-9.707h-8.213z"/>
        <path d="M293.986 131.972h5.973l.775-6.717c-4.182-1.356-3.245 1.489-7.352 1.489l.604 5.228z" fill="#0F343D"/>
        <path stroke="#0F343D" stroke-linecap="square" d="M268.05 131.972h5.973l1.12-9.707h-8.213z"/>
        <path d="M268.05 131.972h5.973l.775-6.717c-4.181-1.356-3.245 1.489-7.351 1.489l.603 5.228z" fill="#0F343D"/>
        <path stroke="#0F343D" stroke-linecap="square" d="M242.115 131.972h5.973l1.12-9.707h-8.213z"/>
        <path d="M242.115 131.972h5.973l.775-6.717c-4.182-1.356-3.245 1.489-7.352 1.489l.604 5.228z" fill="#0F343D"/>
        <path stroke="#0F343D" stroke-linecap="square" d="M216.18 131.972h5.972l1.12-9.707h-8.213z"/>
        <path d="M216.18 131.972h5.972l.775-6.717c-4.181-1.356-3.245 1.489-7.351 1.489l.603 5.228z" fill="#0F343D"/>
        <path stroke="#0F343D" stroke-linecap="square" d="M190.244 131.972h5.973l1.12-9.707h-8.213z"/>
        <path d="M190.244 131.972h5.973l.775-6.717c-4.182-1.356-3.245 1.489-7.352 1.489l.604 5.228z" fill="#0F343D"/>
        <path stroke="#0F343D" stroke-linecap="square" d="M164.308 131.972h5.973l1.12-9.707h-8.213z"/>
        <path d="M164.308 131.972h5.973l.775-6.717c-4.181-1.356-3.245 1.489-7.351 1.489l.603 5.228z" fill="#0F343D"/>
        <path stroke="#0F343D" stroke-linecap="square" d="M138.373 131.972h5.973l1.12-9.707h-8.213z"/>
        <path d="M138.373 131.972h5.973l.775-6.717c-4.182-1.356-3.245 1.489-7.352 1.489l.604 5.228z" fill="#0F343D"/>
        <path stroke="#0F343D" stroke-linecap="square" d="M112.437 131.972h5.973l1.12-9.707h-8.213z"/>
        <path d="M112.437 131.972h5.973l.775-6.717c-4.181-1.356-3.245 1.489-7.351 1.489l.603 5.228z" fill="#0F343D"/>
        <path stroke="#0F343D" stroke-linecap="square" d="M86.502 132.212h5.973l1.12-9.706h-8.213z"/>
        <path d="M86.502 132.212h5.973l.775-6.717c-4.182-1.356-3.245 1.49-7.352 1.49l.604 5.227z" fill="#0F343D"/>
        <path stroke="#0F343D" stroke-linecap="square" d="M332.889 144.843h5.973l1.12-9.706h-8.213z"/>
        <path d="M332.889 144.843h5.973l.775-6.717c-4.182-1.356-3.245 1.49-7.351 1.49l.603 5.227z" fill="#0F343D"/>
        <path stroke="#0F343D" stroke-linecap="square" d="M306.953 144.843h5.973l1.12-9.706h-8.213z"/>
        <path d="M306.953 144.843h5.973l.775-6.717c-4.181-1.356-3.244 1.49-7.35 1.49l.602 5.227z" fill="#0F343D"/>
        <path stroke="#0F343D" stroke-linecap="square" d="M281.018 144.843h5.973l1.12-9.706h-8.213z"/>
        <path d="M281.018 144.843h5.973l.775-6.717c-4.182-1.356-3.245 1.49-7.351 1.49l.603 5.227z" fill="#0F343D"/>
        <path stroke="#0F343D" stroke-linecap="square" d="M255.082 144.843h5.973l1.12-9.706h-8.213z"/>
        <path d="M255.082 144.843h5.973l.775-6.717c-4.181-1.356-3.244 1.49-7.35 1.49l.602 5.227z" fill="#0F343D"/>
        <path stroke="#0F343D" stroke-linecap="square" d="M229.147 144.843h5.973l1.12-9.706h-8.213z"/>
        <path d="M229.147 144.843h5.973l.775-6.717c-4.182-1.356-3.245 1.49-7.351 1.49l.603 5.227z" fill="#0F343D"/>
        <path stroke="#0F343D" stroke-linecap="square" d="M203.211 144.843h5.973l1.12-9.706h-8.213z"/>
        <path d="M203.211 144.843h5.973l.775-6.717c-4.181-1.356-3.244 1.49-7.35 1.49l.602 5.227z" fill="#0F343D"/>
        <path stroke="#0F343D" stroke-linecap="square" d="M177.276 144.843h5.973l1.12-9.706h-8.213z"/>
        <path d="M177.276 144.843h5.973l.775-6.717c-4.182-1.356-3.245 1.49-7.351 1.49l.603 5.227z" fill="#0F343D"/>
        <path stroke="#0F343D" stroke-linecap="square" d="M151.34 144.843h5.973l1.12-9.706h-8.212z"/>
        <path d="M151.34 144.843h5.973l.775-6.717c-4.181-1.356-3.244 1.49-7.35 1.49l.602 5.227z" fill="#0F343D"/>
        <path stroke="#0F343D" stroke-linecap="square" d="M125.405 144.843h5.973l1.12-9.706h-8.213z"/>
        <path d="M125.405 144.843h5.973l.775-6.717c-4.181-1.356-3.245 1.49-7.351 1.49l.603 5.227z" fill="#0F343D"/>
        <path stroke="#0F343D" stroke-linecap="square" d="M99.47 144.843h5.973l1.12-9.706H98.35z"/>
        <path d="M99.47 144.843h5.973l.775-6.717c-4.182-1.356-3.245 1.49-7.352 1.49l.604 5.227z" fill="#0F343D"/>
        <path stroke="#0F343D" stroke-linecap="square" d="M319.921 144.843h5.973l1.12-9.706h-8.213z"/>
        <path d="M319.921 144.843h5.973l.775-6.717c-4.181-1.356-3.245 1.49-7.351 1.49l.603 5.227z" fill="#0F343D"/>
        <path stroke="#0F343D" stroke-linecap="square" d="M293.986 144.843h5.973l1.12-9.706h-8.213z"/>
        <path d="M293.986 144.843h5.973l.775-6.717c-4.182-1.356-3.245 1.49-7.352 1.49l.604 5.227z" fill="#0F343D"/>
        <path stroke="#0F343D" stroke-linecap="square" d="M268.05 144.843h5.973l1.12-9.706h-8.213z"/>
        <path d="M268.05 144.843h5.973l.775-6.717c-4.181-1.356-3.245 1.49-7.351 1.49l.603 5.227z" fill="#0F343D"/>
        <path stroke="#0F343D" stroke-linecap="square" d="M242.115 144.843h5.973l1.12-9.706h-8.213z"/>
        <path d="M242.115 144.843h5.973l.775-6.717c-4.182-1.356-3.245 1.49-7.352 1.49l.604 5.227z" fill="#0F343D"/>
        <path stroke="#0F343D" stroke-linecap="square" d="M216.18 144.843h5.972l1.12-9.706h-8.213z"/>
        <path d="M216.18 144.843h5.972l.775-6.717c-4.181-1.356-3.245 1.49-7.351 1.49l.603 5.227z" fill="#0F343D"/>
        <path stroke="#0F343D" stroke-linecap="square" d="M190.244 144.843h5.973l1.12-9.706h-8.213z"/>
        <path d="M190.244 144.843h5.973l.775-6.717c-4.182-1.356-3.245 1.49-7.352 1.49l.604 5.227z" fill="#0F343D"/>
        <path stroke="#0F343D" stroke-linecap="square" d="M164.308 144.843h5.973l1.12-9.706h-8.213z"/>
        <path d="M164.308 144.843h5.973l.775-6.717c-4.181-1.356-3.245 1.49-7.351 1.49l.603 5.227z" fill="#0F343D"/>
        <path stroke="#0F343D" stroke-linecap="square" d="M138.373 144.843h5.973l1.12-9.706h-8.213z"/>
        <path d="M138.373 144.843h5.973l.775-6.717c-4.182-1.356-3.245 1.49-7.352 1.49l.604 5.227z" fill="#0F343D"/>
        <path stroke="#0F343D" stroke-linecap="square" d="M112.437 144.843h5.973l1.12-9.706h-8.213z"/>
        <path d="M112.437 144.843h5.973l.775-6.717c-4.181-1.356-3.245 1.49-7.351 1.49l.603 5.227z" fill="#0F343D"/>
        <path stroke="#0F343D" stroke-linecap="square" d="M86.502 144.987h5.973l1.12-9.706h-8.213z"/>
        <path d="M86.502 144.987h5.973l.775-6.716c-4.182-1.357-3.245 1.489-7.352 1.489l.604 5.227z" fill="#0F343D"/>
        <path stroke="#0F343D" stroke-linecap="square" d="M332.889 273.56h5.973l1.12-9.706h-8.213z"/>
        <path d="M332.889 273.56h5.973l.775-6.717c-4.182-1.356-3.245 1.49-7.351 1.49l.603 5.227z" fill="#0F343D"/>
        <path stroke="#0F343D" stroke-linecap="square" d="M306.953 273.56h5.973l1.12-9.706h-8.213z"/>
        <path d="M306.953 273.56h5.973l.775-6.717c-4.181-1.356-3.244 1.49-7.35 1.49l.602 5.227z" fill="#0F343D"/>
        <path stroke="#0F343D" stroke-linecap="square" d="M281.018 273.56h5.973l1.12-9.706h-8.213z"/>
        <path d="M281.018 273.56h5.973l.775-6.717c-4.182-1.356-3.245 1.49-7.351 1.49l.603 5.227z" fill="#0F343D"/>
        <path stroke="#0F343D" stroke-linecap="square" d="M255.082 273.56h5.973l1.12-9.706h-8.213z"/>
        <path d="M255.082 273.56h5.973l.775-6.717c-4.181-1.356-3.244 1.49-7.35 1.49l.602 5.227z" fill="#0F343D"/>
        <path stroke="#0F343D" stroke-linecap="square" d="M229.147 273.56h5.973l1.12-9.706h-8.213z"/>
        <path d="M229.147 273.56h5.973l.775-6.717c-4.182-1.356-3.245 1.49-7.351 1.49l.603 5.227z" fill="#0F343D"/>
        <path stroke="#0F343D" stroke-linecap="square" d="M203.211 273.56h5.973l1.12-9.706h-8.213z"/>
        <path d="M203.211 273.56h5.973l.775-6.717c-4.181-1.356-3.244 1.49-7.35 1.49l.602 5.227z" fill="#0F343D"/>
        <path stroke="#0F343D" stroke-linecap="square" d="M177.276 273.56h5.973l1.12-9.706h-8.213z"/>
        <path d="M177.276 273.56h5.973l.775-6.717c-4.182-1.356-3.245 1.49-7.351 1.49l.603 5.227z" fill="#0F343D"/>
        <path stroke="#0F343D" stroke-linecap="square" d="M151.34 273.56h5.973l1.12-9.706h-8.212z"/>
        <path d="M151.34 273.56h5.973l.775-6.717c-4.181-1.356-3.244 1.49-7.35 1.49l.602 5.227z" fill="#0F343D"/>
        <path stroke="#0F343D" stroke-linecap="square" d="M125.405 273.56h5.973l1.12-9.706h-8.213z"/>
        <path d="M125.405 273.56h5.973l.775-6.717c-4.181-1.356-3.245 1.49-7.351 1.49l.603 5.227z" fill="#0F343D"/>
        <path stroke="#0F343D" stroke-linecap="square" d="M99.47 273.56h5.973l1.12-9.706H98.35z"/>
        <path d="M99.47 273.56h5.973l.775-6.717c-4.182-1.356-3.245 1.49-7.352 1.49l.604 5.227z" fill="#0F343D"/>
        <path stroke="#0F343D" stroke-linecap="square" d="M319.921 273.56h5.973l1.12-9.706h-8.213z"/>
        <path d="M319.921 273.56h5.973l.775-6.717c-4.181-1.356-3.245 1.49-7.351 1.49l.603 5.227z" fill="#0F343D"/>
        <path stroke="#0F343D" stroke-linecap="square" d="M293.986 273.56h5.973l1.12-9.706h-8.213z"/>
        <path d="M293.986 273.56h5.973l.775-6.717c-4.182-1.356-3.245 1.49-7.352 1.49l.604 5.227z" fill="#0F343D"/>
        <path stroke="#0F343D" stroke-linecap="square" d="M268.05 273.56h5.973l1.12-9.706h-8.213z"/>
        <path d="M268.05 273.56h5.973l.775-6.717c-4.181-1.356-3.245 1.49-7.351 1.49l.603 5.227z" fill="#0F343D"/>
        <path stroke="#0F343D" stroke-linecap="square" d="M242.115 273.56h5.973l1.12-9.706h-8.213z"/>
        <path d="M242.115 273.56h5.973l.775-6.717c-4.182-1.356-3.245 1.49-7.352 1.49l.604 5.227z" fill="#0F343D"/>
        <path stroke="#0F343D" stroke-linecap="square" d="M216.18 273.56h5.972l1.12-9.706h-8.213z"/>
        <path d="M216.18 273.56h5.972l.775-6.717c-4.181-1.356-3.245 1.49-7.351 1.49l.603 5.227z" fill="#0F343D"/>
        <path stroke="#0F343D" stroke-linecap="square" d="M190.244 273.56h5.973l1.12-9.706h-8.213z"/>
        <path d="M190.244 273.56h5.973l.775-6.717c-4.182-1.356-3.245 1.49-7.352 1.49l.604 5.227z" fill="#0F343D"/>
        <path stroke="#0F343D" stroke-linecap="square" d="M164.308 273.56h5.973l1.12-9.706h-8.213z"/>
        <path d="M164.308 273.56h5.973l.775-6.717c-4.181-1.356-3.245 1.49-7.351 1.49l.603 5.227z" fill="#0F343D"/>
        <path stroke="#0F343D" stroke-linecap="square" d="M138.373 273.56h5.973l1.12-9.706h-8.213z"/>
        <path d="M138.373 273.56h5.973l.775-6.717c-4.182-1.356-3.245 1.49-7.352 1.49l.604 5.227z" fill="#0F343D"/>
        <path stroke="#0F343D" stroke-linecap="square" d="M112.437 273.56h5.973l1.12-9.706h-8.213z"/>
        <path d="M112.437 273.56h5.973l.775-6.717c-4.181-1.356-3.245 1.49-7.351 1.49l.603 5.227z" fill="#0F343D"/>
        <path stroke="#0F343D" stroke-linecap="square" d="M86.502 273.656h5.973l1.12-9.706h-8.213z"/>
        <path d="M86.502 273.656h5.973l.775-6.717c-4.182-1.356-3.245 1.49-7.352 1.49l.604 5.227z" fill="#0F343D"/>
        <g>
            <path stroke="#0F343D" stroke-linecap="square" d="M332.889 157.715h5.973l1.12-9.706h-8.213z"/>
            <path d="M332.889 157.715h5.973l.775-6.717c-4.182-1.356-3.245 1.49-7.351 1.49l.603 5.227z" fill="#0F343D"/>
        </g>
        <g>
            <path stroke="#0F343D" stroke-linecap="square" d="M306.953 157.715h5.973l1.12-9.706h-8.213z"/>
            <path d="M306.953 157.715h5.973l.775-6.717c-4.181-1.356-3.244 1.49-7.35 1.49l.602 5.227z" fill="#0F343D"/>
        </g>
        <g>
            <path stroke="#0F343D" stroke-linecap="square" d="M281.018 157.715h5.973l1.12-9.706h-8.213z"/>
            <path d="M281.018 157.715h5.973l.775-6.717c-4.182-1.356-3.245 1.49-7.351 1.49l.603 5.227z" fill="#0F343D"/>
        </g>
        <g>
            <path stroke="#0F343D" stroke-linecap="square" d="M255.082 157.715h5.973l1.12-9.706h-8.213z"/>
            <path d="M255.082 157.715h5.973l.775-6.717c-4.181-1.356-3.244 1.49-7.35 1.49l.602 5.227z" fill="#0F343D"/>
        </g>
        <g>
            <path stroke="#0F343D" stroke-linecap="square" d="M229.147 157.715h5.973l1.12-9.706h-8.213z"/>
            <path d="M229.147 157.715h5.973l.775-6.717c-4.182-1.356-3.245 1.49-7.351 1.49l.603 5.227z" fill="#0F343D"/>
        </g>
        <g>
            <path stroke="#0F343D" stroke-linecap="square" d="M203.211 157.715h5.973l1.12-9.706h-8.213z"/>
            <path d="M203.211 157.715h5.973l.775-6.717c-4.181-1.356-3.244 1.49-7.35 1.49l.602 5.227z" fill="#0F343D"/>
        </g>
        <g>
            <path stroke="#0F343D" stroke-linecap="square" d="M177.276 157.715h5.973l1.12-9.706h-8.213z"/>
            <path d="M177.276 157.715h5.973l.775-6.717c-4.182-1.356-3.245 1.49-7.351 1.49l.603 5.227z" fill="#0F343D"/>
        </g>
        <g>
            <path stroke="#0F343D" stroke-linecap="square" d="M151.34 157.715h5.973l1.12-9.706h-8.212z"/>
            <path d="M151.34 157.715h5.973l.775-6.717c-4.181-1.356-3.244 1.49-7.35 1.49l.602 5.227z" fill="#0F343D"/>
        </g>
        <g>
            <path stroke="#0F343D" stroke-linecap="square" d="M125.405 157.715h5.973l1.12-9.706h-8.213z"/>
            <path d="M125.405 157.715h5.973l.775-6.717c-4.181-1.356-3.245 1.49-7.351 1.49l.603 5.227z" fill="#0F343D"/>
        </g>
        <g>
            <path stroke="#0F343D" stroke-linecap="square" d="M99.47 157.715h5.973l1.12-9.706H98.35z"/>
            <path d="M99.47 157.715h5.973l.775-6.717c-4.182-1.356-3.245 1.49-7.352 1.49l.604 5.227z" fill="#0F343D"/>
        </g>
        <g>
            <path stroke="#0F343D" stroke-linecap="square" d="M319.921 157.715h5.973l1.12-9.706h-8.213z"/>
            <path d="M319.921 157.715h5.973l.775-6.717c-4.181-1.356-3.245 1.49-7.351 1.49l.603 5.227z" fill="#0F343D"/>
        </g>
        <g>
            <path stroke="#0F343D" stroke-linecap="square" d="M293.986 157.715h5.973l1.12-9.706h-8.213z"/>
            <path d="M293.986 157.715h5.973l.775-6.717c-4.182-1.356-3.245 1.49-7.352 1.49l.604 5.227z" fill="#0F343D"/>
        </g>
        <g>
            <path stroke="#0F343D" stroke-linecap="square" d="M268.05 157.715h5.973l1.12-9.706h-8.213z"/>
            <path d="M268.05 157.715h5.973l.775-6.717c-4.181-1.356-3.245 1.49-7.351 1.49l.603 5.227z" fill="#0F343D"/>
        </g>
        <g>
            <path stroke="#0F343D" stroke-linecap="square" d="M242.115 157.715h5.973l1.12-9.706h-8.213z"/>
            <path d="M242.115 157.715h5.973l.775-6.717c-4.182-1.356-3.245 1.49-7.352 1.49l.604 5.227z" fill="#0F343D"/>
        </g>
        <g>
            <path stroke="#0F343D" stroke-linecap="square" d="M216.18 157.715h5.972l1.12-9.706h-8.213z"/>
            <path d="M216.18 157.715h5.972l.775-6.717c-4.181-1.356-3.245 1.49-7.351 1.49l.603 5.227z" fill="#0F343D"/>
        </g>
        <g>
            <path stroke="#0F343D" stroke-linecap="square" d="M190.244 157.715h5.973l1.12-9.706h-8.213z"/>
            <path d="M190.244 157.715h5.973l.775-6.717c-4.182-1.356-3.245 1.49-7.352 1.49l.604 5.227z" fill="#0F343D"/>
        </g>
        <g>
            <path stroke="#0F343D" stroke-linecap="square" d="M164.308 157.715h5.973l1.12-9.706h-8.213z"/>
            <path d="M164.308 157.715h5.973l.775-6.717c-4.181-1.356-3.245 1.49-7.351 1.49l.603 5.227z" fill="#0F343D"/>
        </g>
        <g>
            <path stroke="#0F343D" stroke-linecap="square" d="M138.373 157.715h5.973l1.12-9.706h-8.213z"/>
            <path d="M138.373 157.715h5.973l.775-6.717c-4.182-1.356-3.245 1.49-7.352 1.49l.604 5.227z" fill="#0F343D"/>
        </g>
        <g>
            <path stroke="#0F343D" stroke-linecap="square" d="M112.437 157.715h5.973l1.12-9.706h-8.213z"/>
            <path d="M112.437 157.715h5.973l.775-6.717c-4.181-1.356-3.245 1.49-7.351 1.49l.603 5.227z" fill="#0F343D"/>
        </g>
        <g>
            <path stroke="#0F343D" stroke-linecap="square" d="M86.502 157.763h5.973l1.12-9.706h-8.213z"/>
            <path d="M86.502 157.763h5.973l.775-6.717c-4.182-1.356-3.245 1.49-7.352 1.49l.604 5.227z" fill="#0F343D"/>
        </g>
        <g>
            <path stroke="#0F343D" stroke-linecap="square" d="M332.889 170.587h5.973l1.12-9.707h-8.213z"/>
            <path d="M332.889 170.587h5.973l.775-6.717c-4.182-1.356-3.245 1.489-7.351 1.489l.603 5.228z" fill="#0F343D"/>
        </g>
        <g>
            <path stroke="#0F343D" stroke-linecap="square" d="M306.953 170.587h5.973l1.12-9.707h-8.213z"/>
            <path d="M306.953 170.587h5.973l.775-6.717c-4.181-1.356-3.244 1.489-7.35 1.489l.602 5.228z" fill="#0F343D"/>
        </g>
        <g>
            <path stroke="#0F343D" stroke-linecap="square" d="M281.018 170.587h5.973l1.12-9.707h-8.213z"/>
            <path d="M281.018 170.587h5.973l.775-6.717c-4.182-1.356-3.245 1.489-7.351 1.489l.603 5.228z" fill="#0F343D"/>
        </g>
        <g>
            <path stroke="#0F343D" stroke-linecap="square" d="M255.082 170.587h5.973l1.12-9.707h-8.213z"/>
            <path d="M255.082 170.587h5.973l.775-6.717c-4.181-1.356-3.244 1.489-7.35 1.489l.602 5.228z" fill="#0F343D"/>
        </g>
        <g>
            <path stroke="#0F343D" stroke-linecap="square" d="M229.147 170.587h5.973l1.12-9.707h-8.213z"/>
            <path d="M229.147 170.587h5.973l.775-6.717c-4.182-1.356-3.245 1.489-7.351 1.489l.603 5.228z" fill="#0F343D"/>
        </g>
        <g>
            <path stroke="#0F343D" stroke-linecap="square" d="M203.211 170.587h5.973l1.12-9.707h-8.213z"/>
            <path d="M203.211 170.587h5.973l.775-6.717c-4.181-1.356-3.244 1.489-7.35 1.489l.602 5.228z" fill="#0F343D"/>
        </g>
        <g>
            <path stroke="#0F343D" stroke-linecap="square" d="M177.276 170.587h5.973l1.12-9.707h-8.213z"/>
            <path d="M177.276 170.587h5.973l.775-6.717c-4.182-1.356-3.245 1.489-7.351 1.489l.603 5.228z" fill="#0F343D"/>
        </g>
        <g>
            <path stroke="#0F343D" stroke-linecap="square" d="M151.34 170.587h5.973l1.12-9.707h-8.212z"/>
            <path d="M151.34 170.587h5.973l.775-6.717c-4.181-1.356-3.244 1.489-7.35 1.489l.602 5.228z" fill="#0F343D"/>
        </g>
        <g>
            <path stroke="#0F343D" stroke-linecap="square" d="M125.405 170.587h5.973l1.12-9.707h-8.213z"/>
            <path d="M125.405 170.587h5.973l.775-6.717c-4.181-1.356-3.245 1.489-7.351 1.489l.603 5.228z" fill="#0F343D"/>
        </g>
        <g>
            <path stroke="#0F343D" stroke-linecap="square" d="M99.47 170.587h5.973l1.12-9.707H98.35z"/>
            <path d="M99.47 170.587h5.973l.775-6.717c-4.182-1.356-3.245 1.489-7.352 1.489l.604 5.228z" fill="#0F343D"/>
        </g>
        <g>
            <path stroke="#0F343D" stroke-linecap="square" d="M319.921 170.587h5.973l1.12-9.707h-8.213z"/>
            <path d="M319.921 170.587h5.973l.775-6.717c-4.181-1.356-3.245 1.489-7.351 1.489l.603 5.228z" fill="#0F343D"/>
        </g>
        <g>
            <path stroke="#0F343D" stroke-linecap="square" d="M293.986 170.587h5.973l1.12-9.707h-8.213z"/>
            <path d="M293.986 170.587h5.973l.775-6.717c-4.182-1.356-3.245 1.489-7.352 1.489l.604 5.228z" fill="#0F343D"/>
        </g>
        <g>
            <path stroke="#0F343D" stroke-linecap="square" d="M268.05 170.587h5.973l1.12-9.707h-8.213z"/>
            <path d="M268.05 170.587h5.973l.775-6.717c-4.181-1.356-3.245 1.489-7.351 1.489l.603 5.228z" fill="#0F343D"/>
        </g>
        <g>
            <path stroke="#0F343D" stroke-linecap="square" d="M242.115 170.587h5.973l1.12-9.707h-8.213z"/>
            <path d="M242.115 170.587h5.973l.775-6.717c-4.182-1.356-3.245 1.489-7.352 1.489l.604 5.228z" fill="#0F343D"/>
        </g>
        <g>
            <path stroke="#0F343D" stroke-linecap="square" d="M216.18 170.587h5.972l1.12-9.707h-8.213z"/>
            <path d="M216.18 170.587h5.972l.775-6.717c-4.181-1.356-3.245 1.489-7.351 1.489l.603 5.228z" fill="#0F343D"/>
        </g>
        <g>
            <path stroke="#0F343D" stroke-linecap="square" d="M190.244 170.587h5.973l1.12-9.707h-8.213z"/>
            <path d="M190.244 170.587h5.973l.775-6.717c-4.182-1.356-3.245 1.489-7.352 1.489l.604 5.228z" fill="#0F343D"/>
        </g>
        <g>
            <path stroke="#0F343D" stroke-linecap="square" d="M164.308 170.587h5.973l1.12-9.707h-8.213z"/>
            <path d="M164.308 170.587h5.973l.775-6.717c-4.181-1.356-3.245 1.489-7.351 1.489l.603 5.228z" fill="#0F343D"/>
        </g>
        <g>
            <path stroke="#0F343D" stroke-linecap="square" d="M138.373 170.587h5.973l1.12-9.707h-8.213z"/>
            <path d="M138.373 170.587h5.973l.775-6.717c-4.182-1.356-3.245 1.489-7.352 1.489l.604 5.228z" fill="#0F343D"/>
        </g>
        <g>
            <path stroke="#0F343D" stroke-linecap="square" d="M112.437 170.587h5.973l1.12-9.707h-8.213z"/>
            <path d="M112.437 170.587h5.973l.775-6.717c-4.181-1.356-3.245 1.489-7.351 1.489l.603 5.228z" fill="#0F343D"/>
        </g>
        <g>
            <path stroke="#0F343D" stroke-linecap="square" d="M86.502 170.539h5.973l1.12-9.707h-8.213z"/>
            <path d="M86.502 170.539h5.973l.775-6.717c-4.182-1.356-3.245 1.489-7.352 1.489l.604 5.228z" fill="#0F343D"/>
        </g>
        <g>
            <path stroke="#0F343D" stroke-linecap="square" d="M332.889 183.458h5.973l1.12-9.706h-8.213z"/>
            <path d="M332.889 183.458h5.973l.775-6.716c-4.182-1.357-3.245 1.489-7.351 1.489l.603 5.227z" fill="#0F343D"/>
        </g>
        <g>
            <path stroke="#0F343D" stroke-linecap="square" d="M306.953 183.458h5.973l1.12-9.706h-8.213z"/>
            <path d="M306.953 183.458h5.973l.775-6.716c-4.181-1.357-3.244 1.489-7.35 1.489l.602 5.227z" fill="#0F343D"/>
        </g>
        <g>
            <path stroke="#0F343D" stroke-linecap="square" d="M281.018 183.458h5.973l1.12-9.706h-8.213z"/>
            <path d="M281.018 183.458h5.973l.775-6.716c-4.182-1.357-3.245 1.489-7.351 1.489l.603 5.227z" fill="#0F343D"/>
        </g>
        <g>
            <path stroke="#0F343D" stroke-linecap="square" d="M255.082 183.458h5.973l1.12-9.706h-8.213z"/>
            <path d="M255.082 183.458h5.973l.775-6.716c-4.181-1.357-3.244 1.489-7.35 1.489l.602 5.227z" fill="#0F343D"/>
        </g>
        <g>
            <path stroke="#0F343D" stroke-linecap="square" d="M229.147 183.458h5.973l1.12-9.706h-8.213z"/>
            <path d="M229.147 183.458h5.973l.775-6.716c-4.182-1.357-3.245 1.489-7.351 1.489l.603 5.227z" fill="#0F343D"/>
        </g>
        <g>
            <path stroke="#0F343D" stroke-linecap="square" d="M203.211 183.458h5.973l1.12-9.706h-8.213z"/>
            <path d="M203.211 183.458h5.973l.775-6.716c-4.181-1.357-3.244 1.489-7.35 1.489l.602 5.227z" fill="#0F343D"/>
        </g>
        <g>
            <path stroke="#0F343D" stroke-linecap="square" d="M177.276 183.458h5.973l1.12-9.706h-8.213z"/>
            <path d="M177.276 183.458h5.973l.775-6.716c-4.182-1.357-3.245 1.489-7.351 1.489l.603 5.227z" fill="#0F343D"/>
        </g>
        <g>
            <path stroke="#0F343D" stroke-linecap="square" d="M151.34 183.458h5.973l1.12-9.706h-8.212z"/>
            <path d="M151.34 183.458h5.973l.775-6.716c-4.181-1.357-3.244 1.489-7.35 1.489l.602 5.227z" fill="#0F343D"/>
        </g>
        <g>
            <path stroke="#0F343D" stroke-linecap="square" d="M125.405 183.458h5.973l1.12-9.706h-8.213z"/>
            <path d="M125.405 183.458h5.973l.775-6.716c-4.181-1.357-3.245 1.489-7.351 1.489l.603 5.227z" fill="#0F343D"/>
        </g>
        <g>
            <path stroke="#0F343D" stroke-linecap="square" d="M99.47 183.458h5.973l1.12-9.706H98.35z"/>
            <path d="M99.47 183.458h5.973l.775-6.716c-4.182-1.357-3.245 1.489-7.352 1.489l.604 5.227z" fill="#0F343D"/>
        </g>
        <g>
            <path stroke="#0F343D" stroke-linecap="square" d="M319.921 183.458h5.973l1.12-9.706h-8.213z"/>
            <path d="M319.921 183.458h5.973l.775-6.716c-4.181-1.357-3.245 1.489-7.351 1.489l.603 5.227z" fill="#0F343D"/>
        </g>
        <g>
            <path stroke="#0F343D" stroke-linecap="square" d="M293.986 183.458h5.973l1.12-9.706h-8.213z"/>
            <path d="M293.986 183.458h5.973l.775-6.716c-4.182-1.357-3.245 1.489-7.352 1.489l.604 5.227z" fill="#0F343D"/>
        </g>
        <g>
            <path stroke="#0F343D" stroke-linecap="square" d="M268.05 183.458h5.973l1.12-9.706h-8.213z"/>
            <path d="M268.05 183.458h5.973l.775-6.716c-4.181-1.357-3.245 1.489-7.351 1.489l.603 5.227z" fill="#0F343D"/>
        </g>
        <g>
            <path stroke="#0F343D" stroke-linecap="square" d="M242.115 183.458h5.973l1.12-9.706h-8.213z"/>
            <path d="M242.115 183.458h5.973l.775-6.716c-4.182-1.357-3.245 1.489-7.352 1.489l.604 5.227z" fill="#0F343D"/>
        </g>
        <g>
            <path stroke="#0F343D" stroke-linecap="square" d="M216.18 183.458h5.972l1.12-9.706h-8.213z"/>
            <path d="M216.18 183.458h5.972l.775-6.716c-4.181-1.357-3.245 1.489-7.351 1.489l.603 5.227z" fill="#0F343D"/>
        </g>
        <g>
            <path stroke="#0F343D" stroke-linecap="square" d="M190.244 183.458h5.973l1.12-9.706h-8.213z"/>
            <path d="M190.244 183.458h5.973l.775-6.716c-4.182-1.357-3.245 1.489-7.352 1.489l.604 5.227z" fill="#0F343D"/>
        </g>
        <g>
            <path stroke="#0F343D" stroke-linecap="square" d="M164.308 183.458h5.973l1.12-9.706h-8.213z"/>
            <path d="M164.308 183.458h5.973l.775-6.716c-4.181-1.357-3.245 1.489-7.351 1.489l.603 5.227z" fill="#0F343D"/>
        </g>
        <g>
            <path stroke="#0F343D" stroke-linecap="square" d="M138.373 183.458h5.973l1.12-9.706h-8.213z"/>
            <path d="M138.373 183.458h5.973l.775-6.716c-4.182-1.357-3.245 1.489-7.352 1.489l.604 5.227z" fill="#0F343D"/>
        </g>
        <g>
            <path stroke="#0F343D" stroke-linecap="square" d="M112.437 183.458h5.973l1.12-9.706h-8.213z"/>
            <path d="M112.437 183.458h5.973l.775-6.716c-4.181-1.357-3.245 1.489-7.351 1.489l.603 5.227z" fill="#0F343D"/>
        </g>
        <g>
            <path stroke="#0F343D" stroke-linecap="square" d="M86.502 183.314h5.973l1.12-9.706h-8.213z"/>
            <path d="M86.502 183.314h5.973l.775-6.717c-4.182-1.356-3.245 1.49-7.352 1.49l.604 5.227z" fill="#0F343D"/>
        </g>
        <g>
            <path stroke="#0F343D" stroke-linecap="square" d="M332.889 196.33h5.973l1.12-9.706h-8.213z"/>
            <path d="M332.889 196.33h5.973l.775-6.717c-4.182-1.356-3.245 1.49-7.351 1.49l.603 5.227z" fill="#0F343D"/>
        </g>
        <g>
            <path stroke="#0F343D" stroke-linecap="square" d="M306.953 196.33h5.973l1.12-9.706h-8.213z"/>
            <path d="M306.953 196.33h5.973l.775-6.717c-4.181-1.356-3.244 1.49-7.35 1.49l.602 5.227z" fill="#0F343D"/>
        </g>
        <g>
            <path stroke="#0F343D" stroke-linecap="square" d="M281.018 196.33h5.973l1.12-9.706h-8.213z"/>
            <path d="M281.018 196.33h5.973l.775-6.717c-4.182-1.356-3.245 1.49-7.351 1.49l.603 5.227z" fill="#0F343D"/>
        </g>
        <g>
            <path stroke="#0F343D" stroke-linecap="square" d="M255.082 196.33h5.973l1.12-9.706h-8.213z"/>
            <path d="M255.082 196.33h5.973l.775-6.717c-4.181-1.356-3.244 1.49-7.35 1.49l.602 5.227z" fill="#0F343D"/>
        </g>
        <g>
            <path stroke="#0F343D" stroke-linecap="square" d="M229.147 196.33h5.973l1.12-9.706h-8.213z"/>
            <path d="M229.147 196.33h5.973l.775-6.717c-4.182-1.356-3.245 1.49-7.351 1.49l.603 5.227z" fill="#0F343D"/>
        </g>
        <g>
            <path stroke="#0F343D" stroke-linecap="square" d="M203.211 196.33h5.973l1.12-9.706h-8.213z"/>
            <path d="M203.211 196.33h5.973l.775-6.717c-4.181-1.356-3.244 1.49-7.35 1.49l.602 5.227z" fill="#0F343D"/>
        </g>
        <g>
            <path stroke="#0F343D" stroke-linecap="square" d="M177.276 196.33h5.973l1.12-9.706h-8.213z"/>
            <path d="M177.276 196.33h5.973l.775-6.717c-4.182-1.356-3.245 1.49-7.351 1.49l.603 5.227z" fill="#0F343D"/>
        </g>
        <g>
            <path stroke="#0F343D" stroke-linecap="square" d="M151.34 196.33h5.973l1.12-9.706h-8.212z"/>
            <path d="M151.34 196.33h5.973l.775-6.717c-4.181-1.356-3.244 1.49-7.35 1.49l.602 5.227z" fill="#0F343D"/>
        </g>
        <g>
            <path stroke="#0F343D" stroke-linecap="square" d="M125.405 196.33h5.973l1.12-9.706h-8.213z"/>
            <path d="M125.405 196.33h5.973l.775-6.717c-4.181-1.356-3.245 1.49-7.351 1.49l.603 5.227z" fill="#0F343D"/>
        </g>
        <g>
            <path stroke="#0F343D" stroke-linecap="square" d="M99.47 196.33h5.973l1.12-9.706H98.35z"/>
            <path d="M99.47 196.33h5.973l.775-6.717c-4.182-1.356-3.245 1.49-7.352 1.49l.604 5.227z" fill="#0F343D"/>
        </g>
        <g>
            <path stroke="#0F343D" stroke-linecap="square" d="M319.921 196.33h5.973l1.12-9.706h-8.213z"/>
            <path d="M319.921 196.33h5.973l.775-6.717c-4.181-1.356-3.245 1.49-7.351 1.49l.603 5.227z" fill="#0F343D"/>
        </g>
        <g>
            <path stroke="#0F343D" stroke-linecap="square" d="M293.986 196.33h5.973l1.12-9.706h-8.213z"/>
            <path d="M293.986 196.33h5.973l.775-6.717c-4.182-1.356-3.245 1.49-7.352 1.49l.604 5.227z" fill="#0F343D"/>
        </g>
        <g>
            <path stroke="#0F343D" stroke-linecap="square" d="M268.05 196.33h5.973l1.12-9.706h-8.213z"/>
            <path d="M268.05 196.33h5.973l.775-6.717c-4.181-1.356-3.245 1.49-7.351 1.49l.603 5.227z" fill="#0F343D"/>
        </g>
        <g>
            <path stroke="#0F343D" stroke-linecap="square" d="M242.115 196.33h5.973l1.12-9.706h-8.213z"/>
            <path d="M242.115 196.33h5.973l.775-6.717c-4.182-1.356-3.245 1.49-7.352 1.49l.604 5.227z" fill="#0F343D"/>
        </g>
        <g>
            <path stroke="#0F343D" stroke-linecap="square" d="M216.18 196.33h5.972l1.12-9.706h-8.213z"/>
            <path d="M216.18 196.33h5.972l.775-6.717c-4.181-1.356-3.245 1.49-7.351 1.49l.603 5.227z" fill="#0F343D"/>
        </g>
        <g>
            <path stroke="#0F343D" stroke-linecap="square" d="M190.244 196.33h5.973l1.12-9.706h-8.213z"/>
            <path d="M190.244 196.33h5.973l.775-6.717c-4.182-1.356-3.245 1.49-7.352 1.49l.604 5.227z" fill="#0F343D"/>
        </g>
        <g>
            <path stroke="#0F343D" stroke-linecap="square" d="M164.308 196.33h5.973l1.12-9.706h-8.213z"/>
            <path d="M164.308 196.33h5.973l.775-6.717c-4.181-1.356-3.245 1.49-7.351 1.49l.603 5.227z" fill="#0F343D"/>
        </g>
        <g>
            <path stroke="#0F343D" stroke-linecap="square" d="M138.373 196.33h5.973l1.12-9.706h-8.213z"/>
            <path d="M138.373 196.33h5.973l.775-6.717c-4.182-1.356-3.245 1.49-7.352 1.49l.604 5.227z" fill="#0F343D"/>
        </g>
        <g>
            <path stroke="#0F343D" stroke-linecap="square" d="M112.437 196.33h5.973l1.12-9.706h-8.213z"/>
            <path d="M112.437 196.33h5.973l.775-6.717c-4.181-1.356-3.245 1.49-7.351 1.49l.603 5.227z" fill="#0F343D"/>
        </g>
        <g>
            <path stroke="#0F343D" stroke-linecap="square" d="M86.502 196.09h5.973l1.12-9.706h-8.213z"/>
            <path d="M86.502 196.09h5.973l.775-6.717c-4.182-1.356-3.245 1.49-7.352 1.49l.604 5.227z" fill="#0F343D"/>
        </g>
        <g>
            <path stroke="#0F343D" stroke-linecap="square" d="M332.889 209.202h5.973l1.12-9.706h-8.213z"/>
            <path d="M332.889 209.202h5.973l.775-6.717c-4.182-1.356-3.245 1.489-7.351 1.489l.603 5.228z" fill="#0F343D"/>
        </g>
        <g>
            <path stroke="#0F343D" stroke-linecap="square" d="M306.953 209.202h5.973l1.12-9.706h-8.213z"/>
            <path d="M306.953 209.202h5.973l.775-6.717c-4.181-1.356-3.244 1.489-7.35 1.489l.602 5.228z" fill="#0F343D"/>
        </g>
        <g>
            <path stroke="#0F343D" stroke-linecap="square" d="M281.018 209.202h5.973l1.12-9.706h-8.213z"/>
            <path d="M281.018 209.202h5.973l.775-6.717c-4.182-1.356-3.245 1.489-7.351 1.489l.603 5.228z" fill="#0F343D"/>
        </g>
        <g>
            <path stroke="#0F343D" stroke-linecap="square" d="M255.082 209.202h5.973l1.12-9.706h-8.213z"/>
            <path d="M255.082 209.202h5.973l.775-6.717c-4.181-1.356-3.244 1.489-7.35 1.489l.602 5.228z" fill="#0F343D"/>
        </g>
        <g>
            <path stroke="#0F343D" stroke-linecap="square" d="M229.147 209.202h5.973l1.12-9.706h-8.213z"/>
            <path d="M229.147 209.202h5.973l.775-6.717c-4.182-1.356-3.245 1.489-7.351 1.489l.603 5.228z" fill="#0F343D"/>
        </g>
        <g>
            <path stroke="#0F343D" stroke-linecap="square" d="M203.211 209.202h5.973l1.12-9.706h-8.213z"/>
            <path d="M203.211 209.202h5.973l.775-6.717c-4.181-1.356-3.244 1.489-7.35 1.489l.602 5.228z" fill="#0F343D"/>
        </g>
        <g>
            <path stroke="#0F343D" stroke-linecap="square" d="M177.276 209.202h5.973l1.12-9.706h-8.213z"/>
            <path d="M177.276 209.202h5.973l.775-6.717c-4.182-1.356-3.245 1.489-7.351 1.489l.603 5.228z" fill="#0F343D"/>
        </g>
        <g>
            <path stroke="#0F343D" stroke-linecap="square" d="M151.34 209.202h5.973l1.12-9.706h-8.212z"/>
            <path d="M151.34 209.202h5.973l.775-6.717c-4.181-1.356-3.244 1.489-7.35 1.489l.602 5.228z" fill="#0F343D"/>
        </g>
        <g>
            <path stroke="#0F343D" stroke-linecap="square" d="M125.405 209.202h5.973l1.12-9.706h-8.213z"/>
            <path d="M125.405 209.202h5.973l.775-6.717c-4.181-1.356-3.245 1.489-7.351 1.489l.603 5.228z" fill="#0F343D"/>
        </g>
        <g>
            <path stroke="#0F343D" stroke-linecap="square" d="M99.47 209.202h5.973l1.12-9.706H98.35z"/>
            <path d="M99.47 209.202h5.973l.775-6.717c-4.182-1.356-3.245 1.489-7.352 1.489l.604 5.228z" fill="#0F343D"/>
        </g>
        <g>
            <path stroke="#0F343D" stroke-linecap="square" d="M319.921 209.202h5.973l1.12-9.706h-8.213z"/>
            <path d="M319.921 209.202h5.973l.775-6.717c-4.181-1.356-3.245 1.489-7.351 1.489l.603 5.228z" fill="#0F343D"/>
        </g>
        <g>
            <path stroke="#0F343D" stroke-linecap="square" d="M293.986 209.202h5.973l1.12-9.706h-8.213z"/>
            <path d="M293.986 209.202h5.973l.775-6.717c-4.182-1.356-3.245 1.489-7.352 1.489l.604 5.228z" fill="#0F343D"/>
        </g>
        <g>
            <path stroke="#0F343D" stroke-linecap="square" d="M268.05 209.202h5.973l1.12-9.706h-8.213z"/>
            <path d="M268.05 209.202h5.973l.775-6.717c-4.181-1.356-3.245 1.489-7.351 1.489l.603 5.228z" fill="#0F343D"/>
        </g>
        <g>
            <path stroke="#0F343D" stroke-linecap="square" d="M242.115 209.202h5.973l1.12-9.706h-8.213z"/>
            <path d="M242.115 209.202h5.973l.775-6.717c-4.182-1.356-3.245 1.489-7.352 1.489l.604 5.228z" fill="#0F343D"/>
        </g>
        <g>
            <path stroke="#0F343D" stroke-linecap="square" d="M216.18 209.202h5.972l1.12-9.706h-8.213z"/>
            <path d="M216.18 209.202h5.972l.775-6.717c-4.181-1.356-3.245 1.489-7.351 1.489l.603 5.228z" fill="#0F343D"/>
        </g>
        <g>
            <path stroke="#0F343D" stroke-linecap="square" d="M190.244 209.202h5.973l1.12-9.706h-8.213z"/>
            <path d="M190.244 209.202h5.973l.775-6.717c-4.182-1.356-3.245 1.489-7.352 1.489l.604 5.228z" fill="#0F343D"/>
        </g>
        <g>
            <path stroke="#0F343D" stroke-linecap="square" d="M164.308 209.202h5.973l1.12-9.706h-8.213z"/>
            <path d="M164.308 209.202h5.973l.775-6.717c-4.181-1.356-3.245 1.489-7.351 1.489l.603 5.228z" fill="#0F343D"/>
        </g>
        <g>
            <path stroke="#0F343D" stroke-linecap="square" d="M138.373 209.202h5.973l1.12-9.706h-8.213z"/>
            <path d="M138.373 209.202h5.973l.775-6.717c-4.182-1.356-3.245 1.489-7.352 1.489l.604 5.228z" fill="#0F343D"/>
        </g>
        <g>
            <path stroke="#0F343D" stroke-linecap="square" d="M112.437 209.202h5.973l1.12-9.706h-8.213z"/>
            <path d="M112.437 209.202h5.973l.775-6.717c-4.181-1.356-3.245 1.489-7.351 1.489l.603 5.228z" fill="#0F343D"/>
        </g>
        <g>
            <path stroke="#0F343D" stroke-linecap="square" d="M86.502 208.865h5.973l1.12-9.706h-8.213z"/>
            <path d="M86.502 208.865h5.973l.775-6.716c-4.182-1.357-3.245 1.489-7.352 1.489l.604 5.227z" fill="#0F343D"/>
        </g>
        <g>
            <path stroke="#0F343D" stroke-linecap="square" d="M332.889 222.073h5.973l1.12-9.706h-8.213z"/>
            <path d="M332.889 222.073h5.973l.775-6.716c-4.182-1.357-3.245 1.489-7.351 1.489l.603 5.227z" fill="#0F343D"/>
        </g>
        <g>
            <path stroke="#0F343D" stroke-linecap="square" d="M306.953 222.073h5.973l1.12-9.706h-8.213z"/>
            <path d="M306.953 222.073h5.973l.775-6.716c-4.181-1.357-3.244 1.489-7.35 1.489l.602 5.227z" fill="#0F343D"/>
        </g>
        <g>
            <path stroke="#0F343D" stroke-linecap="square" d="M281.018 222.073h5.973l1.12-9.706h-8.213z"/>
            <path d="M281.018 222.073h5.973l.775-6.716c-4.182-1.357-3.245 1.489-7.351 1.489l.603 5.227z" fill="#0F343D"/>
        </g>
        <g>
            <path stroke="#0F343D" stroke-linecap="square" d="M255.082 222.073h5.973l1.12-9.706h-8.213z"/>
            <path d="M255.082 222.073h5.973l.775-6.716c-4.181-1.357-3.244 1.489-7.35 1.489l.602 5.227z" fill="#0F343D"/>
        </g>
        <g>
            <path stroke="#0F343D" stroke-linecap="square" d="M229.147 222.073h5.973l1.12-9.706h-8.213z"/>
            <path d="M229.147 222.073h5.973l.775-6.716c-4.182-1.357-3.245 1.489-7.351 1.489l.603 5.227z" fill="#0F343D"/>
        </g>
        <g>
            <path stroke="#0F343D" stroke-linecap="square" d="M203.211 222.073h5.973l1.12-9.706h-8.213z"/>
            <path d="M203.211 222.073h5.973l.775-6.716c-4.181-1.357-3.244 1.489-7.35 1.489l.602 5.227z" fill="#0F343D"/>
        </g>
        <g>
            <path stroke="#0F343D" stroke-linecap="square" d="M177.276 222.073h5.973l1.12-9.706h-8.213z"/>
            <path d="M177.276 222.073h5.973l.775-6.716c-4.182-1.357-3.245 1.489-7.351 1.489l.603 5.227z" fill="#0F343D"/>
        </g>
        <g>
            <path stroke="#0F343D" stroke-linecap="square" d="M151.34 222.073h5.973l1.12-9.706h-8.212z"/>
            <path d="M151.34 222.073h5.973l.775-6.716c-4.181-1.357-3.244 1.489-7.35 1.489l.602 5.227z" fill="#0F343D"/>
        </g>
        <g>
            <path stroke="#0F343D" stroke-linecap="square" d="M125.405 222.073h5.973l1.12-9.706h-8.213z"/>
            <path d="M125.405 222.073h5.973l.775-6.716c-4.181-1.357-3.245 1.489-7.351 1.489l.603 5.227z" fill="#0F343D"/>
        </g>
        <g>
            <path stroke="#0F343D" stroke-linecap="square" d="M99.47 222.073h5.973l1.12-9.706H98.35z"/>
            <path d="M99.47 222.073h5.973l.775-6.716c-4.182-1.357-3.245 1.489-7.352 1.489l.604 5.227z" fill="#0F343D"/>
        </g>
        <g>
            <path stroke="#0F343D" stroke-linecap="square" d="M319.921 222.073h5.973l1.12-9.706h-8.213z"/>
            <path d="M319.921 222.073h5.973l.775-6.716c-4.181-1.357-3.245 1.489-7.351 1.489l.603 5.227z" fill="#0F343D"/>
        </g>
        <g>
            <path stroke="#0F343D" stroke-linecap="square" d="M293.986 222.073h5.973l1.12-9.706h-8.213z"/>
            <path d="M293.986 222.073h5.973l.775-6.716c-4.182-1.357-3.245 1.489-7.352 1.489l.604 5.227z" fill="#0F343D"/>
        </g>
        <g>
            <path stroke="#0F343D" stroke-linecap="square" d="M268.05 222.073h5.973l1.12-9.706h-8.213z"/>
            <path d="M268.05 222.073h5.973l.775-6.716c-4.181-1.357-3.245 1.489-7.351 1.489l.603 5.227z" fill="#0F343D"/>
        </g>
        <g>
            <path stroke="#0F343D" stroke-linecap="square" d="M242.115 222.073h5.973l1.12-9.706h-8.213z"/>
            <path d="M242.115 222.073h5.973l.775-6.716c-4.182-1.357-3.245 1.489-7.352 1.489l.604 5.227z" fill="#0F343D"/>
        </g>
        <g>
            <path stroke="#0F343D" stroke-linecap="square" d="M216.18 222.073h5.972l1.12-9.706h-8.213z"/>
            <path d="M216.18 222.073h5.972l.775-6.716c-4.181-1.357-3.245 1.489-7.351 1.489l.603 5.227z" fill="#0F343D"/>
        </g>
        <g>
            <path stroke="#0F343D" stroke-linecap="square" d="M190.244 222.073h5.973l1.12-9.706h-8.213z"/>
            <path d="M190.244 222.073h5.973l.775-6.716c-4.182-1.357-3.245 1.489-7.352 1.489l.604 5.227z" fill="#0F343D"/>
        </g>
        <g>
            <path stroke="#0F343D" stroke-linecap="square" d="M164.308 222.073h5.973l1.12-9.706h-8.213z"/>
            <path d="M164.308 222.073h5.973l.775-6.716c-4.181-1.357-3.245 1.489-7.351 1.489l.603 5.227z" fill="#0F343D"/>
        </g>
        <g>
            <path stroke="#0F343D" stroke-linecap="square" d="M138.373 222.073h5.973l1.12-9.706h-8.213z"/>
            <path d="M138.373 222.073h5.973l.775-6.716c-4.182-1.357-3.245 1.489-7.352 1.489l.604 5.227z" fill="#0F343D"/>
        </g>
        <g>
            <path stroke="#0F343D" stroke-linecap="square" d="M112.437 222.073h5.973l1.12-9.706h-8.213z"/>
            <path d="M112.437 222.073h5.973l.775-6.716c-4.181-1.357-3.245 1.489-7.351 1.489l.603 5.227z" fill="#0F343D"/>
        </g>
        <g>
            <path stroke="#0F343D" stroke-linecap="square" d="M86.502 221.641h5.973l1.12-9.706h-8.213z"/>
            <path d="M86.502 221.641h5.973l.775-6.717c-4.182-1.356-3.245 1.49-7.352 1.49l.604 5.227z" fill="#0F343D"/>
        </g>
        <g>
            <path stroke="#0F343D" stroke-linecap="square" d="M332.889 234.945h5.973l1.12-9.706h-8.213z"/>
            <path d="M332.889 234.945h5.973l.775-6.717c-4.182-1.356-3.245 1.49-7.351 1.49l.603 5.227z" fill="#0F343D"/>
        </g>
        <g>
            <path stroke="#0F343D" stroke-linecap="square" d="M306.953 234.945h5.973l1.12-9.706h-8.213z"/>
            <path d="M306.953 234.945h5.973l.775-6.717c-4.181-1.356-3.244 1.49-7.35 1.49l.602 5.227z" fill="#0F343D"/>
        </g>
        <g>
            <path stroke="#0F343D" stroke-linecap="square" d="M281.018 234.945h5.973l1.12-9.706h-8.213z"/>
            <path d="M281.018 234.945h5.973l.775-6.717c-4.182-1.356-3.245 1.49-7.351 1.49l.603 5.227z" fill="#0F343D"/>
        </g>
        <g>
            <path stroke="#0F343D" stroke-linecap="square" d="M255.082 234.945h5.973l1.12-9.706h-8.213z"/>
            <path d="M255.082 234.945h5.973l.775-6.717c-4.181-1.356-3.244 1.49-7.35 1.49l.602 5.227z" fill="#0F343D"/>
        </g>
        <g>
            <path stroke="#0F343D" stroke-linecap="square" d="M229.147 234.945h5.973l1.12-9.706h-8.213z"/>
            <path d="M229.147 234.945h5.973l.775-6.717c-4.182-1.356-3.245 1.49-7.351 1.49l.603 5.227z" fill="#0F343D"/>
        </g>
        <g>
            <path stroke="#0F343D" stroke-linecap="square" d="M203.211 234.945h5.973l1.12-9.706h-8.213z"/>
            <path d="M203.211 234.945h5.973l.775-6.717c-4.181-1.356-3.244 1.49-7.35 1.49l.602 5.227z" fill="#0F343D"/>
        </g>
        <g>
            <path stroke="#0F343D" stroke-linecap="square" d="M177.276 234.945h5.973l1.12-9.706h-8.213z"/>
            <path d="M177.276 234.945h5.973l.775-6.717c-4.182-1.356-3.245 1.49-7.351 1.49l.603 5.227z" fill="#0F343D"/>
        </g>
        <g>
            <path stroke="#0F343D" stroke-linecap="square" d="M151.34 234.945h5.973l1.12-9.706h-8.212z"/>
            <path d="M151.34 234.945h5.973l.775-6.717c-4.181-1.356-3.244 1.49-7.35 1.49l.602 5.227z" fill="#0F343D"/>
        </g>
        <g>
            <path stroke="#0F343D" stroke-linecap="square" d="M125.405 234.945h5.973l1.12-9.706h-8.213z"/>
            <path d="M125.405 234.945h5.973l.775-6.717c-4.181-1.356-3.245 1.49-7.351 1.49l.603 5.227z" fill="#0F343D"/>
        </g>
        <g>
            <path stroke="#0F343D" stroke-linecap="square" d="M99.47 234.945h5.973l1.12-9.706H98.35z"/>
            <path d="M99.47 234.945h5.973l.775-6.717c-4.182-1.356-3.245 1.49-7.352 1.49l.604 5.227z" fill="#0F343D"/>
        </g>
        <g>
            <path stroke="#0F343D" stroke-linecap="square" d="M319.921 234.945h5.973l1.12-9.706h-8.213z"/>
            <path d="M319.921 234.945h5.973l.775-6.717c-4.181-1.356-3.245 1.49-7.351 1.49l.603 5.227z" fill="#0F343D"/>
        </g>
        <g>
            <path stroke="#0F343D" stroke-linecap="square" d="M293.986 234.945h5.973l1.12-9.706h-8.213z"/>
            <path d="M293.986 234.945h5.973l.775-6.717c-4.182-1.356-3.245 1.49-7.352 1.49l.604 5.227z" fill="#0F343D"/>
        </g>
        <g>
            <path stroke="#0F343D" stroke-linecap="square" d="M268.05 234.945h5.973l1.12-9.706h-8.213z"/>
            <path d="M268.05 234.945h5.973l.775-6.717c-4.181-1.356-3.245 1.49-7.351 1.49l.603 5.227z" fill="#0F343D"/>
        </g>
        <g>
            <path stroke="#0F343D" stroke-linecap="square" d="M242.115 234.945h5.973l1.12-9.706h-8.213z"/>
            <path d="M242.115 234.945h5.973l.775-6.717c-4.182-1.356-3.245 1.49-7.352 1.49l.604 5.227z" fill="#0F343D"/>
        </g>
        <g>
            <path stroke="#0F343D" stroke-linecap="square" d="M216.18 234.945h5.972l1.12-9.706h-8.213z"/>
            <path d="M216.18 234.945h5.972l.775-6.717c-4.181-1.356-3.245 1.49-7.351 1.49l.603 5.227z" fill="#0F343D"/>
        </g>
        <g>
            <path stroke="#0F343D" stroke-linecap="square" d="M190.244 234.945h5.973l1.12-9.706h-8.213z"/>
            <path d="M190.244 234.945h5.973l.775-6.717c-4.182-1.356-3.245 1.49-7.352 1.49l.604 5.227z" fill="#0F343D"/>
        </g>
        <g>
            <path stroke="#0F343D" stroke-linecap="square" d="M164.308 234.945h5.973l1.12-9.706h-8.213z"/>
            <path d="M164.308 234.945h5.973l.775-6.717c-4.181-1.356-3.245 1.49-7.351 1.49l.603 5.227z" fill="#0F343D"/>
        </g>
        <g>
            <path stroke="#0F343D" stroke-linecap="square" d="M138.373 234.945h5.973l1.12-9.706h-8.213z"/>
            <path d="M138.373 234.945h5.973l.775-6.717c-4.182-1.356-3.245 1.49-7.352 1.49l.604 5.227z" fill="#0F343D"/>
        </g>
        <g>
            <path stroke="#0F343D" stroke-linecap="square" d="M112.437 234.945h5.973l1.12-9.706h-8.213z"/>
            <path d="M112.437 234.945h5.973l.775-6.717c-4.181-1.356-3.245 1.49-7.351 1.49l.603 5.227z" fill="#0F343D"/>
        </g>
        <g>
            <path stroke="#0F343D" stroke-linecap="square" d="M86.502 235.33h5.973l1.12-9.707h-8.213z"/>
            <path d="M86.502 235.33h5.973l.775-6.718c-4.182-1.356-3.245 1.49-7.352 1.49l.604 5.227z" fill="#0F343D"/>
        </g>
        <g>
            <path stroke="#0F343D" stroke-linecap="square" d="M332.889 247.817h5.973l1.12-9.706h-8.213z"/>
            <path d="M332.889 247.817h5.973l.775-6.717c-4.182-1.356-3.245 1.49-7.351 1.49l.603 5.227z" fill="#0F343D"/>
        </g>
        <g>
            <path stroke="#0F343D" stroke-linecap="square" d="M306.953 247.817h5.973l1.12-9.706h-8.213z"/>
            <path d="M306.953 247.817h5.973l.775-6.717c-4.181-1.356-3.244 1.49-7.35 1.49l.602 5.227z" fill="#0F343D"/>
        </g>
        <g>
            <path stroke="#0F343D" stroke-linecap="square" d="M281.018 247.817h5.973l1.12-9.706h-8.213z"/>
            <path d="M281.018 247.817h5.973l.775-6.717c-4.182-1.356-3.245 1.49-7.351 1.49l.603 5.227z" fill="#0F343D"/>
        </g>
        <g>
            <path stroke="#0F343D" stroke-linecap="square" d="M255.082 247.817h5.973l1.12-9.706h-8.213z"/>
            <path d="M255.082 247.817h5.973l.775-6.717c-4.181-1.356-3.244 1.49-7.35 1.49l.602 5.227z" fill="#0F343D"/>
        </g>
        <g>
            <path stroke="#0F343D" stroke-linecap="square" d="M229.147 247.817h5.973l1.12-9.706h-8.213z"/>
            <path d="M229.147 247.817h5.973l.775-6.717c-4.182-1.356-3.245 1.49-7.351 1.49l.603 5.227z" fill="#0F343D"/>
        </g>
        <g>
            <path stroke="#0F343D" stroke-linecap="square" d="M203.211 247.817h5.973l1.12-9.706h-8.213z"/>
            <path d="M203.211 247.817h5.973l.775-6.717c-4.181-1.356-3.244 1.49-7.35 1.49l.602 5.227z" fill="#0F343D"/>
        </g>
        <g>
            <path stroke="#0F343D" stroke-linecap="square" d="M177.276 247.817h5.973l1.12-9.706h-8.213z"/>
            <path d="M177.276 247.817h5.973l.775-6.717c-4.182-1.356-3.245 1.49-7.351 1.49l.603 5.227z" fill="#0F343D"/>
        </g>
        <g>
            <path stroke="#0F343D" stroke-linecap="square" d="M151.34 247.817h5.973l1.12-9.706h-8.212z"/>
            <path d="M151.34 247.817h5.973l.775-6.717c-4.181-1.356-3.244 1.49-7.35 1.49l.602 5.227z" fill="#0F343D"/>
        </g>
        <g>
            <path stroke="#0F343D" stroke-linecap="square" d="M125.405 247.817h5.973l1.12-9.706h-8.213z"/>
            <path d="M125.405 247.817h5.973l.775-6.717c-4.181-1.356-3.245 1.49-7.351 1.49l.603 5.227z" fill="#0F343D"/>
        </g>
        <g>
            <path stroke="#0F343D" stroke-linecap="square" d="M99.47 247.817h5.973l1.12-9.706H98.35z"/>
            <path d="M99.47 247.817h5.973l.775-6.717c-4.182-1.356-3.245 1.49-7.352 1.49l.604 5.227z" fill="#0F343D"/>
        </g>
        <g>
            <path stroke="#0F343D" stroke-linecap="square" d="M319.921 247.817h5.973l1.12-9.706h-8.213z"/>
            <path d="M319.921 247.817h5.973l.775-6.717c-4.181-1.356-3.245 1.49-7.351 1.49l.603 5.227z" fill="#0F343D"/>
        </g>
        <g>
            <path stroke="#0F343D" stroke-linecap="square" d="M293.986 247.817h5.973l1.12-9.706h-8.213z"/>
            <path d="M293.986 247.817h5.973l.775-6.717c-4.182-1.356-3.245 1.49-7.352 1.49l.604 5.227z" fill="#0F343D"/>
        </g>
        <g>
            <path stroke="#0F343D" stroke-linecap="square" d="M268.05 247.817h5.973l1.12-9.706h-8.213z"/>
            <path d="M268.05 247.817h5.973l.775-6.717c-4.181-1.356-3.245 1.49-7.351 1.49l.603 5.227z" fill="#0F343D"/>
        </g>
        <g>
            <path stroke="#0F343D" stroke-linecap="square" d="M242.115 247.817h5.973l1.12-9.706h-8.213z"/>
            <path d="M242.115 247.817h5.973l.775-6.717c-4.182-1.356-3.245 1.49-7.352 1.49l.604 5.227z" fill="#0F343D"/>
        </g>
        <g>
            <path stroke="#0F343D" stroke-linecap="square" d="M216.18 247.817h5.972l1.12-9.706h-8.213z"/>
            <path d="M216.18 247.817h5.972l.775-6.717c-4.181-1.356-3.245 1.49-7.351 1.49l.603 5.227z" fill="#0F343D"/>
        </g>
        <g>
            <path stroke="#0F343D" stroke-linecap="square" d="M190.244 247.817h5.973l1.12-9.706h-8.213z"/>
            <path d="M190.244 247.817h5.973l.775-6.717c-4.182-1.356-3.245 1.49-7.352 1.49l.604 5.227z" fill="#0F343D"/>
        </g>
        <g>
            <path stroke="#0F343D" stroke-linecap="square" d="M164.308 247.817h5.973l1.12-9.706h-8.213z"/>
            <path d="M164.308 247.817h5.973l.775-6.717c-4.181-1.356-3.245 1.49-7.351 1.49l.603 5.227z" fill="#0F343D"/>
        </g>
        <g>
            <path stroke="#0F343D" stroke-linecap="square" d="M138.373 247.817h5.973l1.12-9.706h-8.213z"/>
            <path d="M138.373 247.817h5.973l.775-6.717c-4.182-1.356-3.245 1.49-7.352 1.49l.604 5.227z" fill="#0F343D"/>
        </g>
        <g>
            <path stroke="#0F343D" stroke-linecap="square" d="M112.437 247.817h5.973l1.12-9.706h-8.213z"/>
            <path d="M112.437 247.817h5.973l.775-6.717c-4.181-1.356-3.245 1.49-7.351 1.49l.603 5.227z" fill="#0F343D"/>
        </g>
        <g>
            <path stroke="#0F343D" stroke-linecap="square" d="M86.502 248.105h5.973l1.12-9.706h-8.213z"/>
            <path d="M86.502 248.105h5.973l.775-6.717c-4.182-1.356-3.245 1.49-7.352 1.49l.604 5.227z" fill="#0F343D"/>
        </g>
        <g>
            <path stroke="#0F343D" stroke-linecap="square" d="M332.889 260.688h5.973l1.12-9.706h-8.213z"/>
            <path d="M332.889 260.688h5.973l.775-6.716c-4.182-1.357-3.245 1.489-7.351 1.489l.603 5.227z" fill="#0F343D"/>
        </g>
        <g>
            <path stroke="#0F343D" stroke-linecap="square" d="M306.953 260.688h5.973l1.12-9.706h-8.213z"/>
            <path d="M306.953 260.688h5.973l.775-6.716c-4.181-1.357-3.244 1.489-7.35 1.489l.602 5.227z" fill="#0F343D"/>
        </g>
        <g>
            <path stroke="#0F343D" stroke-linecap="square" d="M281.018 260.688h5.973l1.12-9.706h-8.213z"/>
            <path d="M281.018 260.688h5.973l.775-6.716c-4.182-1.357-3.245 1.489-7.351 1.489l.603 5.227z" fill="#0F343D"/>
        </g>
        <g>
            <path stroke="#0F343D" stroke-linecap="square" d="M255.082 260.688h5.973l1.12-9.706h-8.213z"/>
            <path d="M255.082 260.688h5.973l.775-6.716c-4.181-1.357-3.244 1.489-7.35 1.489l.602 5.227z" fill="#0F343D"/>
        </g>
        <g>
            <path stroke="#0F343D" stroke-linecap="square" d="M229.147 260.688h5.973l1.12-9.706h-8.213z"/>
            <path d="M229.147 260.688h5.973l.775-6.716c-4.182-1.357-3.245 1.489-7.351 1.489l.603 5.227z" fill="#0F343D"/>
        </g>
        <g>
            <path stroke="#0F343D" stroke-linecap="square" d="M203.211 260.688h5.973l1.12-9.706h-8.213z"/>
            <path d="M203.211 260.688h5.973l.775-6.716c-4.181-1.357-3.244 1.489-7.35 1.489l.602 5.227z" fill="#0F343D"/>
        </g>
        <g>
            <path stroke="#0F343D" stroke-linecap="square" d="M177.276 260.688h5.973l1.12-9.706h-8.213z"/>
            <path d="M177.276 260.688h5.973l.775-6.716c-4.182-1.357-3.245 1.489-7.351 1.489l.603 5.227z" fill="#0F343D"/>
        </g>
        <g>
            <path stroke="#0F343D" stroke-linecap="square" d="M151.34 260.688h5.973l1.12-9.706h-8.212z"/>
            <path d="M151.34 260.688h5.973l.775-6.716c-4.181-1.357-3.244 1.489-7.35 1.489l.602 5.227z" fill="#0F343D"/>
        </g>
        <g>
            <path stroke="#0F343D" stroke-linecap="square" d="M125.405 260.688h5.973l1.12-9.706h-8.213z"/>
            <path d="M125.405 260.688h5.973l.775-6.716c-4.181-1.357-3.245 1.489-7.351 1.489l.603 5.227z" fill="#0F343D"/>
        </g>
        <g>
            <path stroke="#0F343D" stroke-linecap="square" d="M99.47 260.688h5.973l1.12-9.706H98.35z"/>
            <path d="M99.47 260.688h5.973l.775-6.716c-4.182-1.357-3.245 1.489-7.352 1.489l.604 5.227z" fill="#0F343D"/>
        </g>
        <g>
            <path stroke="#0F343D" stroke-linecap="square" d="M319.921 260.688h5.973l1.12-9.706h-8.213z"/>
            <path d="M319.921 260.688h5.973l.775-6.716c-4.181-1.357-3.245 1.489-7.351 1.489l.603 5.227z" fill="#0F343D"/>
        </g>
        <g>
            <path stroke="#0F343D" stroke-linecap="square" d="M293.986 260.688h5.973l1.12-9.706h-8.213z"/>
            <path d="M293.986 260.688h5.973l.775-6.716c-4.182-1.357-3.245 1.489-7.352 1.489l.604 5.227z" fill="#0F343D"/>
        </g>
        <g>
            <path stroke="#0F343D" stroke-linecap="square" d="M268.05 260.688h5.973l1.12-9.706h-8.213z"/>
            <path d="M268.05 260.688h5.973l.775-6.716c-4.181-1.357-3.245 1.489-7.351 1.489l.603 5.227z" fill="#0F343D"/>
        </g>
        <g>
            <path stroke="#0F343D" stroke-linecap="square" d="M242.115 260.688h5.973l1.12-9.706h-8.213z"/>
            <path d="M242.115 260.688h5.973l.775-6.716c-4.182-1.357-3.245 1.489-7.352 1.489l.604 5.227z" fill="#0F343D"/>
        </g>
        <g>
            <path stroke="#0F343D" stroke-linecap="square" d="M216.18 260.688h5.972l1.12-9.706h-8.213z"/>
            <path d="M216.18 260.688h5.972l.775-6.716c-4.181-1.357-3.245 1.489-7.351 1.489l.603 5.227z" fill="#0F343D"/>
        </g>
        <g>
            <path stroke="#0F343D" stroke-linecap="square" d="M190.244 260.688h5.973l1.12-9.706h-8.213z"/>
            <path d="M190.244 260.688h5.973l.775-6.716c-4.182-1.357-3.245 1.489-7.352 1.489l.604 5.227z" fill="#0F343D"/>
        </g>
        <g>
            <path stroke="#0F343D" stroke-linecap="square" d="M164.308 260.688h5.973l1.12-9.706h-8.213z"/>
            <path d="M164.308 260.688h5.973l.775-6.716c-4.181-1.357-3.245 1.489-7.351 1.489l.603 5.227z" fill="#0F343D"/>
        </g>
        <g>
            <path stroke="#0F343D" stroke-linecap="square" d="M138.373 260.688h5.973l1.12-9.706h-8.213z"/>
            <path d="M138.373 260.688h5.973l.775-6.716c-4.182-1.357-3.245 1.489-7.352 1.489l.604 5.227z" fill="#0F343D"/>
        </g>
        <g>
            <path stroke="#0F343D" stroke-linecap="square" d="M112.437 260.688h5.973l1.12-9.706h-8.213z"/>
            <path d="M112.437 260.688h5.973l.775-6.716c-4.181-1.357-3.245 1.489-7.351 1.489l.603 5.227z" fill="#0F343D"/>
        </g>
        <g>
            <path stroke="#0F343D" stroke-linecap="square" d="M86.502 260.88h5.973l1.12-9.706h-8.213z"/>
            <path d="M86.502 260.88h5.973l.775-6.716c-4.182-1.357-3.245 1.489-7.352 1.489l.604 5.228z" fill="#0F343D"/>
        </g>
        <g>
            <path stroke="#0F343D" stroke-linecap="square" d="M332.889 286.432h5.973l1.12-9.706h-8.213z"/>
            <path d="M332.889 286.432h5.973l.775-6.717c-4.182-1.356-3.245 1.49-7.351 1.49l.603 5.227z" fill="#0F343D"/>
        </g>
        <g>
            <path stroke="#0F343D" stroke-linecap="square" d="M306.953 286.432h5.973l1.12-9.706h-8.213z"/>
            <path d="M306.953 286.432h5.973l.775-6.717c-4.181-1.356-3.244 1.49-7.35 1.49l.602 5.227z" fill="#0F343D"/>
        </g>
        <g>
            <path stroke="#0F343D" stroke-linecap="square" d="M281.018 286.432h5.973l1.12-9.706h-8.213z"/>
            <path d="M281.018 286.432h5.973l.775-6.717c-4.182-1.356-3.245 1.49-7.351 1.49l.603 5.227z" fill="#0F343D"/>
        </g>
        <g>
            <path stroke="#0F343D" stroke-linecap="square" d="M255.082 286.432h5.973l1.12-9.706h-8.213z"/>
            <path d="M255.082 286.432h5.973l.775-6.717c-4.181-1.356-3.244 1.49-7.35 1.49l.602 5.227z" fill="#0F343D"/>
        </g>
        <g>
            <path stroke="#0F343D" stroke-linecap="square" d="M229.147 286.432h5.973l1.12-9.706h-8.213z"/>
            <path d="M229.147 286.432h5.973l.775-6.717c-4.182-1.356-3.245 1.49-7.351 1.49l.603 5.227z" fill="#0F343D"/>
        </g>
        <g>
            <path stroke="#0F343D" stroke-linecap="square" d="M203.211 286.432h5.973l1.12-9.706h-8.213z"/>
            <path d="M203.211 286.432h5.973l.775-6.717c-4.181-1.356-3.244 1.49-7.35 1.49l.602 5.227z" fill="#0F343D"/>
        </g>
        <g>
            <path stroke="#0F343D" stroke-linecap="square" d="M177.276 286.432h5.973l1.12-9.706h-8.213z"/>
            <path d="M177.276 286.432h5.973l.775-6.717c-4.182-1.356-3.245 1.49-7.351 1.49l.603 5.227z" fill="#0F343D"/>
        </g>
        <g>
            <path stroke="#0F343D" stroke-linecap="square" d="M151.34 286.432h5.973l1.12-9.706h-8.212z"/>
            <path d="M151.34 286.432h5.973l.775-6.717c-4.181-1.356-3.244 1.49-7.35 1.49l.602 5.227z" fill="#0F343D"/>
        </g>
        <g>
            <path stroke="#0F343D" stroke-linecap="square" d="M125.405 286.432h5.973l1.12-9.706h-8.213z"/>
            <path d="M125.405 286.432h5.973l.775-6.717c-4.181-1.356-3.245 1.49-7.351 1.49l.603 5.227z" fill="#0F343D"/>
        </g>
        <g>
            <path stroke="#0F343D" stroke-linecap="square" d="M99.47 286.432h5.973l1.12-9.706H98.35z"/>
            <path d="M99.47 286.432h5.973l.775-6.717c-4.182-1.356-3.245 1.49-7.352 1.49l.604 5.227z" fill="#0F343D"/>
        </g>
        <g>
            <path stroke="#0F343D" stroke-linecap="square" d="M319.921 286.432h5.973l1.12-9.706h-8.213z"/>
            <path d="M319.921 286.432h5.973l.775-6.717c-4.181-1.356-3.245 1.49-7.351 1.49l.603 5.227z" fill="#0F343D"/>
        </g>
        <g>
            <path stroke="#0F343D" stroke-linecap="square" d="M293.986 286.432h5.973l1.12-9.706h-8.213z"/>
            <path d="M293.986 286.432h5.973l.775-6.717c-4.182-1.356-3.245 1.49-7.352 1.49l.604 5.227z" fill="#0F343D"/>
        </g>
        <g>
            <path stroke="#0F343D" stroke-linecap="square" d="M268.05 286.432h5.973l1.12-9.706h-8.213z"/>
            <path d="M268.05 286.432h5.973l.775-6.717c-4.181-1.356-3.245 1.49-7.351 1.49l.603 5.227z" fill="#0F343D"/>
        </g>
        <g>
            <path stroke="#0F343D" stroke-linecap="square" d="M242.115 286.432h5.973l1.12-9.706h-8.213z"/>
            <path d="M242.115 286.432h5.973l.775-6.717c-4.182-1.356-3.245 1.49-7.352 1.49l.604 5.227z" fill="#0F343D"/>
        </g>
        <g>
            <path stroke="#0F343D" stroke-linecap="square" d="M216.18 286.432h5.972l1.12-9.706h-8.213z"/>
            <path d="M216.18 286.432h5.972l.775-6.717c-4.181-1.356-3.245 1.49-7.351 1.49l.603 5.227z" fill="#0F343D"/>
        </g>
        <g>
            <path stroke="#0F343D" stroke-linecap="square" d="M190.244 286.432h5.973l1.12-9.706h-8.213z"/>
            <path d="M190.244 286.432h5.973l.775-6.717c-4.182-1.356-3.245 1.49-7.352 1.49l.604 5.227z" fill="#0F343D"/>
        </g>
        <g>
            <path stroke="#0F343D" stroke-linecap="square" d="M164.308 286.432h5.973l1.12-9.706h-8.213z"/>
            <path d="M164.308 286.432h5.973l.775-6.717c-4.181-1.356-3.245 1.49-7.351 1.49l.603 5.227z" fill="#0F343D"/>
        </g>
        <g>
            <path stroke="#0F343D" stroke-linecap="square" d="M138.373 286.432h5.973l1.12-9.706h-8.213z"/>
            <path d="M138.373 286.432h5.973l.775-6.717c-4.182-1.356-3.245 1.49-7.352 1.49l.604 5.227z" fill="#0F343D"/>
        </g>
        <g>
            <path stroke="#0F343D" stroke-linecap="square" d="M112.437 286.432h5.973l1.12-9.706h-8.213z"/>
            <path d="M112.437 286.432h5.973l.775-6.717c-4.181-1.356-3.245 1.49-7.351 1.49l.603 5.227z" fill="#0F343D"/>
        </g>
        <g>
            <path stroke="#0F343D" stroke-linecap="square" d="M86.502 286.432h5.973l1.12-9.706h-8.213z"/>
            <path d="M86.502 286.432h5.973l.775-6.717c-4.182-1.356-3.245 1.49-7.352 1.49l.604 5.227z" fill="#0F343D"/>
        </g>
        <text font-family="Manrope-Bold, Manrope" font-size="13" font-weight="bold" letter-spacing="4" fill="#0F343D" transform="translate(.11 .018)">
                            <tspan x="188.558" y="14">500X</tspan>
                        </text>
        <text font-family="Manrope-Bold, Manrope" font-size="13" font-weight="bold" letter-spacing="4" fill="#0F343D" transform="translate(.11 .018)">
                            <tspan x="2.901" y="137.036">1X</tspan>
                        </text>
        <g>
            <path fill="#0F343D" d="M5.11 176.96h17.042v18.837H5.11z"/>
            <path stroke="#F5F4EC" stroke-width="2" stroke-linecap="square" d="m5.11 193.614 18.649-15.702"/>
            <path d="M10.041 170.804v1.836a.576.576 0 0 1-.554.578l-.084.003c-1.744 0-3.146 1.201-3.146 2.677v22.783c0 1.476 1.402 2.677 3.126 2.677h9.328c1.724 0 3.126-1.2 3.126-2.677v-22.783c0-1.476-1.402-2.677-3.126-2.677l-.104-.003a.576.576 0 0 1-.554-.578v-1.822l-8.012-.014zm8.67 31.71H9.383c-2.357 0-4.274-1.72-4.274-3.833v-22.783c0-1.965 1.657-3.59 3.784-3.808v-1.865c0-.154.06-.301.169-.41a.572.572 0 0 1 .405-.169h.001l9.16.017c.316 0 .573.259.573.578v1.847c2.118.212 3.784 1.84 3.784 3.81v22.783c0 2.114-1.917 3.834-4.274 3.834z" fill="#0F343D"/>
            <path d="M22.411 178.113H5.683a.575.575 0 0 1-.574-.576c0-.319.257-.577.574-.577h16.728c.317 0 .574.258.574.577a.575.575 0 0 1-.574.576M22.411 196.398H5.683a.575.575 0 0 1-.574-.576c0-.319.257-.577.574-.577h16.728c.317 0 .574.258.574.577a.575.575 0 0 1-.574.576" fill="#0F343D"/>
            <g fill="#0F343D">
                <path d="M19.905 170.71H8.363a.569.569 0 0 1-.572-.566v-6.941c0-.313.256-.566.572-.566h11.542c.316 0 .572.253.572.566v6.941a.569.569 0 0 1-.572.566z"/>
                <g stroke="#0F343D" stroke-linecap="square">
                    <path d="M17.035 155.018h-5.831v8.073h5.83zM17.186 157.71h3.588v2.69h-3.588z"/>
                </g>
            </g>
        </g>
    </g>
</svg>
