<svg width="66" height="72" viewBox="0 0 66 72" xmlns="http://www.w3.org/2000/svg">
    <defs>
        <linearGradient x1="0%" y1="0%" x2="100%" y2="100%" id="jtipzp5jha">
            <stop stop-color="#F5F4EC" offset="0%"/>
            <stop stop-color="#ACE7CE" offset="100%"/>
        </linearGradient>
    </defs>
    <g fill="none" fill-rule="evenodd">
        <path stroke="#0F343D" stroke-width="2" stroke-linecap="square" d="M55.956 9.108 38.663 33.433 9.108 29.631M46.046 62.263l-8.108-28.83"/>
        <path d="M61.59 3.445a8.108 8.108 0 1 1-13.267 9.326A8.108 8.108 0 0 1 61.59 3.445M14.742 24.168A8.108 8.108 0 1 1 1.473 33.49a8.108 8.108 0 0 1 13.27-9.322M51.677 56.597a8.108 8.108 0 1 1-13.264 9.325A8.108 8.108 0 0 1 51.679 56.6M46.602 26.409a11.26 11.26 0 1 1-18.426 12.95 11.26 11.26 0 0 1 18.426-12.95" fill="url(#jtipzp5jha)" transform="translate(1 1)"/>
        <path d="M52.024 24.3a16.665 16.665 0 0 1-16.5 26.002 16.666 16.666 0 0 1-6.719-30.053c7.53-5.293 17.926-3.479 23.22 4.052h0z" stroke="#0F343D" stroke-width="2" stroke-linecap="square"/>
        <path d="M47.602 27.409a11.26 11.26 0 1 1-18.426 12.95 11.26 11.26 0 0 1 18.426-12.95M62.59 4.445a8.108 8.108 0 1 1-13.267 9.326A8.108 8.108 0 0 1 62.59 4.445M15.742 25.168A8.108 8.108 0 1 1 2.473 34.49a8.108 8.108 0 0 1 13.27-9.322M52.677 57.597a8.108 8.108 0 1 1-13.264 9.325A8.108 8.108 0 0 1 52.679 57.6" stroke="#0F343D" stroke-width="2" stroke-linecap="square"/>
    </g>
</svg>
