<?xml version="1.0" standalone="no"?>
<!-- Generator: Adobe Fireworks 10, Export SVG Extension by Aaron Beall (http://fireworks.abeall.com) . Version: 0.6.1  -->
<!DOCTYPE svg PUBLIC "-//W3C//DTD SVG 1.1//EN" "http://www.w3.org/Graphics/SVG/1.1/DTD/svg11.dtd">
<svg id="Untitled-Page%201" viewBox="0 0 196 84" style="background-color:#ffffff00" version="1.1"
	xmlns="http://www.w3.org/2000/svg" xmlns:xlink="http://www.w3.org/1999/xlink" xml:space="preserve"
	x="0px" y="0px" width="196px" height="84px"
>
	<g id="Layer%201">
		<g>
			<path d="M 1.5 7.1977 C 1.5 4.0348 4.541 1 7.7104 1 L 188.2896 1 C 191.459 1 194.5 4.0347 194.5 7.1977 L 194.5 76.8024 C 194.5 79.9653 191.459 83 188.2896 83 L 7.7104 83 C 4.541 83 1.5 79.9652 1.5 76.8024 L 1.5 7.1977 Z" stroke="#d2d0cc" stroke-width="2" fill="#ffffff"/>
		</g>
		<g>
			<g>
				<path d="M 125.0132 35.1617 C 124.3879 39.248 121.2538 39.248 118.2212 39.248 L 116.4964 39.248 L 117.7065 31.6185 C 117.7789 31.1577 118.1785 30.8187 118.6472 30.8187 L 119.4388 30.8187 C 121.5027 30.8187 123.4516 30.8187 124.457 31.9884 C 125.0586 32.6887 125.2401 33.7279 125.0132 35.1617 L 125.0132 35.1617 ZM 123.6935 24.5 L 112.2596 24.5 C 111.4766 24.5 110.8119 25.0664 110.6893 25.8354 L 106.0663 55.027 C 105.9745 55.6022 106.4228 56.1232 107.0065 56.1232 L 112.8741 56.1232 C 113.4211 56.1232 113.8871 55.7269 113.9725 55.1898 L 115.2847 46.913 C 115.4056 46.1437 116.072 45.577 116.8533 45.577 L 120.4708 45.577 C 128.0027 45.577 132.3502 41.9491 133.4853 34.7553 C 133.9972 31.6112 133.5063 29.1395 132.0273 27.4091 C 130.4014 25.5067 127.5194 24.5 123.6935 24.5 L 123.6935 24.5 Z" fill="#009cde"/>
			</g>
			<g>
				<path d="M 43.4588 35.1617 C 42.8337 39.248 39.6993 39.248 36.667 39.248 L 34.942 39.248 L 36.1523 31.6185 C 36.2247 31.1577 36.6241 30.8187 37.093 30.8187 L 37.8847 30.8187 C 39.9486 30.8187 41.8974 30.8187 42.9029 31.9884 C 43.5045 32.6887 43.6859 33.7279 43.4588 35.1617 L 43.4588 35.1617 ZM 42.1393 24.5 L 30.7052 24.5 C 29.9221 24.5 29.2574 25.0664 29.1351 25.8354 L 24.512 55.027 C 24.4204 55.6022 24.8672 56.1232 25.4523 56.1232 L 30.9131 56.1232 C 31.6945 56.1232 32.3591 55.5565 32.4814 54.7888 L 33.7302 46.913 C 33.8512 46.1437 34.5176 45.577 35.299 45.577 L 38.9166 45.577 C 46.4485 45.577 50.796 41.9491 51.9311 34.7553 C 52.4427 31.6112 51.9519 29.1395 50.4731 27.4091 C 48.8472 25.5067 45.965 24.5 42.1393 24.5 L 42.1393 24.5 Z" fill="#003087"/>
			</g>
			<g>
				<path d="M 68.6851 45.6415 C 68.1559 48.756 65.673 50.8479 62.5048 50.8479 C 60.9172 50.8479 59.645 50.3383 58.8282 49.3754 C 58.0188 48.4216 57.7136 47.0609 57.9702 45.5474 C 58.4624 42.4593 60.9863 40.3018 64.1059 40.3018 C 65.6611 40.3018 66.923 40.8152 67.7562 41.7872 C 68.5948 42.7662 68.9254 44.134 68.6851 45.6415 L 68.6851 45.6415 ZM 76.3157 35.0308 L 70.8402 35.0308 C 70.3715 35.0308 69.9719 35.3701 69.8979 35.8322 L 69.6576 37.3558 L 69.2758 36.804 C 68.0895 35.0911 65.4459 34.5171 62.8072 34.5171 C 56.7584 34.5171 51.5912 39.0819 50.5857 45.4829 C 50.0621 48.677 50.8052 51.7286 52.6245 53.8582 C 54.2947 55.8146 56.6788 56.629 59.5194 56.629 C 64.3964 56.629 67.1002 53.5118 67.1002 53.5118 L 66.8553 55.0264 C 66.764 55.6017 67.2109 56.1226 67.7973 56.1226 L 72.7269 56.1226 C 73.5099 56.1226 74.1747 55.5576 74.2972 54.7888 L 77.2575 36.1273 C 77.3488 35.5521 76.9006 35.0308 76.3157 35.0308 L 76.3157 35.0308 Z" fill="#003087"/>
			</g>
			<g>
				<path d="M 150.2392 45.6415 C 149.71 48.756 147.2277 50.8479 144.0595 50.8479 C 142.4714 50.8479 141.1992 50.3383 140.3826 49.3754 C 139.5716 48.4216 139.2681 47.0609 139.5246 45.5474 C 140.0171 42.4593 142.541 40.3018 145.6606 40.3018 C 147.2158 40.3018 148.4778 40.8152 149.3104 41.7872 C 150.1496 42.7662 150.4796 44.134 150.2392 45.6415 L 150.2392 45.6415 ZM 157.8699 35.0308 L 152.3949 35.0308 C 151.9257 35.0308 151.5266 35.3701 151.4526 35.8322 L 151.2123 37.3558 L 150.8289 36.804 C 149.6436 35.0911 147.0003 34.5171 144.3613 34.5171 C 138.3129 34.5171 133.1456 39.0819 132.1401 45.4829 C 131.6169 48.677 132.3599 51.7286 134.1791 53.8582 C 135.8494 55.8146 138.2329 56.629 141.0739 56.629 C 145.9506 56.629 148.6544 53.5118 148.6544 53.5118 L 148.4097 55.0264 C 148.3185 55.6017 148.765 56.1226 149.352 56.1226 L 154.2817 56.1226 C 155.0646 56.1226 155.7294 55.5576 155.8519 54.7888 L 158.8122 36.1273 C 158.9035 35.5521 158.4553 35.0308 157.8699 35.0308 L 157.8699 35.0308 Z" fill="#009cde"/>
			</g>
			<g>
				<path d="M 105.4767 35.0311 L 99.9736 35.0311 C 99.4471 35.0311 98.9551 35.2908 98.6603 35.7255 L 91.0679 46.8571 L 87.8512 36.1599 C 87.6492 35.4905 87.0298 35.0311 86.3278 35.0311 L 80.9193 35.0311 C 80.2659 35.0311 79.8063 35.6709 80.0169 36.2859 L 86.0762 53.9963 L 80.3765 62.0027 C 79.9299 62.6312 80.3809 63.5 81.1552 63.5 L 86.6524 63.5 C 87.173 63.5 87.6606 63.2462 87.9586 62.8204 L 106.2597 36.5209 C 106.6976 35.8911 106.2467 35.0311 105.4767 35.0311 L 105.4767 35.0311 Z" fill="#003087"/>
			</g>
			<g>
				<path d="M 164.3235 25.3021 L 159.6309 55.0275 C 159.5396 55.6027 159.9862 56.1237 160.5715 56.1237 L 165.2916 56.1237 C 166.073 56.1237 166.7394 55.5576 166.8604 54.7882 L 171.488 25.597 C 171.5793 25.0217 171.1328 24.5005 170.5459 24.5005 L 165.2651 24.5005 C 164.7949 24.5005 164.3958 24.8397 164.3235 25.3021 L 164.3235 25.3021 Z" fill="#009cde"/>
			</g>
		</g>
	</g>
</svg>