<svg width="57" height="67" viewBox="0 0 57 67" xmlns="http://www.w3.org/2000/svg">
    <defs>
        <linearGradient x1="33.98%" y1="0%" x2="66.02%" y2="100%" id="r3igdouzna">
            <stop stop-color="#F5F4EC" offset="0%"/>
            <stop stop-color="#ACE7CE" offset="100%"/>
        </linearGradient>
    </defs>
    <g fill="none" fill-rule="evenodd">
        <path d="M45.327 18.133c-4.585-2.366-14.299.008-17.34 1.027a3.05 3.05 0 0 1-.96.156v42.1h.048a2.88 2.88 0 0 1 2.61 1.665c.314.503 2.502 3.41 9.284.53 8.962-3.8 14.425-16.554 15.022-26.623.546-9.257-2.37-15.598-8.664-18.844" fill="url(#r3igdouzna)" transform="translate(1 1)"/>
        <path d="M28.028 19.018c.16-4.581 2.206-10.985 11.712-13.513" stroke="#0F343D" stroke-width="2" stroke-linecap="square"/>
        <path d="M9.727 19.147c4.591-2.367 14.077-.06 17.342 1.027.62.207 1.293.207 1.914 0 3.041-1.02 12.756-3.39 17.344-1.027 6.295 3.247 9.21 9.587 8.664 18.844-.582 10.068-6.053 22.82-15.01 26.62-6.788 2.88-8.97-.028-9.285-.53a2.88 2.88 0 0 0-2.611-1.664 3.05 3.05 0 0 0-2.72 1.696c-.019.036-2.07 3.554-9.276.498-8.962-3.8-14.427-16.552-15.023-26.62-.551-9.257 2.365-15.597 8.66-18.844zM21.55 3.874c3.459 3.459 2.829 9.694 2.829 9.694s-6.236.627-9.695-2.829c-3.458-3.455-2.828-9.694-2.828-9.694s6.235-.63 9.694 2.829z" stroke="#0F343D" stroke-width="2" stroke-linecap="square"/>
        <path d="M25.236 42.1c-.487 1.575-2.245 2.482-3.927 2.026-1.682-.455-2.652-2.1-2.165-3.675.485-1.575 4.91-5.216 4.91-5.216s1.668 5.29 1.182 6.865zM30.82 42.127c.503 1.561 2.251 2.452 3.922 2 1.67-.454 2.642-2.083 2.18-3.656-.488-1.581-4.917-5.236-4.917-5.236s-1.673 5.31-1.186 6.892z" stroke="#0F343D" stroke-width="2" stroke-linecap="square"/>
    </g>
</svg>
