<?xml version="1.0" standalone="no"?>
<!-- Generator: Adobe Fireworks 10, Export SVG Extension by Aaron Beall (http://fireworks.abeall.com) . Version: 0.6.1  -->
<!DOCTYPE svg PUBLIC "-//W3C//DTD SVG 1.1//EN" "http://www.w3.org/Graphics/SVG/1.1/DTD/svg11.dtd">
<svg id="Untitled-Page%201" viewBox="0 0 103 45" style="background-color:#ffffff00" version="1.1"
	xmlns="http://www.w3.org/2000/svg" xmlns:xlink="http://www.w3.org/1999/xlink" xml:space="preserve"
	x="0px" y="0px" width="103px" height="45px"
>
	<g id="Layer%201">
		<path d="M 1 4.25 C 1 2.5914 2.5914 1 4.25 1 L 98.75 1 C 100.4086 1 102 2.5914 102 4.25 L 102 40.75 C 102 42.4086 100.4086 44 98.75 44 L 4.25 44 C 2.5914 44 1 42.4086 1 40.75 L 1 4.25 Z" stroke="#d2d0cc" stroke-width="1" fill="#ffffff"/>
		<path d="M 16.9016 20.5745 L 19.8524 23.5 L 25.7541 17.6489 L 27.9001 19.7766 L 19.8524 27.2234 L 15.0239 22.4362 L 16.9016 20.5745 ZM 11 14.4574 L 11 26.6915 C 11 26.6915 11 27.0239 11.2682 27.4893 C 11.5365 27.9548 19.0477 34.9362 19.0477 34.9362 C 19.0477 34.9362 19.0981 35.0165 19.1965 35.133 L 19.1967 35.2021 C 19.1967 35.2021 19.442 35.4928 19.9021 35.7234 C 20.1804 35.8811 20.5228 36 20.9255 36 L 21.0006 35.9987 L 21.0745 36 C 21.4769 36 21.8196 35.8823 22.0978 35.7247 C 22.5583 35.4942 22.8033 35.2021 22.8033 35.2021 L 22.8033 35.133 C 22.9017 35.0164 22.9523 34.9362 22.9523 34.9362 C 22.9523 34.9362 30.4635 27.9548 30.7318 27.4893 C 31 27.0239 31 26.6915 31 26.6915 L 31 14.4574 L 30.7318 13.1276 C 30.0612 11.9974 29.1222 11.7979 29.1222 11.7979 L 21.8793 11 L 21.7302 11 L 21.1937 11 L 20.8063 11 L 20.2698 11 L 20.1207 11 L 12.8778 11.7979 C 12.8778 11.7979 11.9389 11.9974 11.2682 13.1276 L 11 14.4574 Z" fill="#95bf47"/>
		<path d="M 17.905 33.875 L 19.0477 34.9362 C 19.0477 34.9362 19.0981 35.0165 19.1965 35.133 L 19.1967 35.2021 C 19.1967 35.2021 19.442 35.4928 19.9021 35.7234 C 20.1804 35.8811 20.5228 36 20.9255 36 L 21.0006 35.9987 L 21.0745 36 C 21.4769 36 21.8196 35.8823 22.0978 35.7247 C 22.5583 35.4942 22.8033 35.2021 22.8033 35.2021 L 22.8033 35.133 C 22.9017 35.0164 22.9523 34.9362 22.9523 34.9362 C 22.9523 34.9362 30.4635 27.9548 30.7318 27.4893 C 31 27.0239 31 26.6915 31 26.6915 L 31 14.4574 L 30.7318 13.1276 C 30.0612 11.9974 29.1222 11.7979 29.1222 11.7979 L 24.13 11.25 C 23.8284 14.0554 23.3298 17.2801 22.525 20.85 L 25.7541 17.6489 L 27.9001 19.7766 L 21.19 25.985 C 20.2804 28.9353 19.1359 31.5669 17.905 33.875 Z" fill="#5e8e3e"/>
		<path id="Line" d="M 39.5 36.5 L 39.5 9.5 " stroke="#d2d0cc" stroke-width="1" fill="none"/>
		<path d="M 65.5615 22.8185 C 66.0295 22.6915 66.4416 22.5099 66.8067 22.2559 C 67.1719 22.0018 67.462 21.6933 67.6774 21.3121 C 67.8834 20.9401 67.9957 20.5045 67.9957 20.0054 C 67.9957 19.5245 67.9021 19.1252 67.7243 18.8167 C 67.5369 18.5082 67.3123 18.2541 67.0314 18.0635 C 66.7505 17.873 66.4509 17.7187 66.1513 17.6097 C 65.8517 17.5009 65.5802 17.4192 65.3367 17.3557 L 63.5579 16.8747 C 63.3331 16.8203 63.1084 16.7568 62.8931 16.666 C 62.6683 16.5753 62.4905 16.4574 62.3407 16.3121 C 62.1909 16.1669 62.1254 15.9673 62.1254 15.7313 C 62.1254 15.4773 62.2096 15.2595 62.3781 15.078 C 62.5466 14.8965 62.7807 14.7514 63.0616 14.6425 C 63.3424 14.5426 63.6515 14.4973 63.9885 14.4973 C 64.3256 14.5154 64.6439 14.5789 64.9435 14.706 C 65.2431 14.833 65.5052 15.0145 65.7112 15.2504 C 65.9173 15.4864 66.0577 15.7768 66.1326 16.1125 L 67.9208 15.804 C 67.771 15.2232 67.5183 14.7151 67.1625 14.2976 C 66.8067 13.8802 66.3572 13.5535 65.8235 13.3357 C 65.2899 13.1179 64.6813 13 64.0073 13 C 63.3331 13 62.7245 13.0998 62.1815 13.3085 C 61.6291 13.5172 61.189 13.8348 60.8707 14.2523 C 60.543 14.6697 60.3839 15.1869 60.3839 15.804 C 60.3839 16.2305 60.4493 16.5844 60.5992 16.8747 C 60.7396 17.1651 60.9269 17.4011 61.1516 17.5825 C 61.3763 17.764 61.6198 17.9093 61.8818 18.0181 C 62.1347 18.127 62.3688 18.2086 62.5934 18.2632 L 65.1589 18.9982 C 65.3367 19.0526 65.4959 19.1161 65.6363 19.1887 C 65.7768 19.2613 65.8892 19.343 65.9827 19.4337 C 66.0764 19.5245 66.1419 19.6333 66.1887 19.7423 C 66.2356 19.8512 66.2637 19.9782 66.2637 20.1052 C 66.2637 20.4138 66.1606 20.6679 65.9641 20.8675 C 65.7674 21.0671 65.5146 21.2214 65.2057 21.3303 C 64.8873 21.4392 64.5596 21.4937 64.2039 21.4937 C 63.6046 21.4937 63.0803 21.3393 62.6216 21.0308 C 62.1628 20.7223 61.8632 20.2777 61.7227 19.6969 L 60 19.951 C 60.0936 20.5862 60.337 21.1306 60.7115 21.5844 C 61.0861 22.0381 61.5636 22.392 62.144 22.637 C 62.7245 22.8729 63.3706 23 64.1009 23 C 64.6064 23 65.0933 22.9364 65.5615 22.8185 L 65.5615 22.8185 Z" fill="#383838"/>
		<path d="M 74.7565 22.8185 C 75.2245 22.6915 75.6365 22.5099 76.0017 22.2559 C 76.3668 22.0018 76.657 21.6933 76.8724 21.3121 C 77.0784 20.9401 77.1907 20.5045 77.1907 20.0054 C 77.1907 19.5245 77.0972 19.1252 76.9192 18.8167 C 76.732 18.5082 76.5073 18.2541 76.2263 18.0635 C 75.9454 17.873 75.6459 17.7187 75.3463 17.6097 C 75.0466 17.5009 74.7752 17.4192 74.5317 17.3557 L 72.7528 16.8747 C 72.528 16.8203 72.3033 16.7568 72.0881 16.666 C 71.8633 16.5753 71.6854 16.4574 71.5356 16.3121 C 71.3858 16.1669 71.3203 15.9673 71.3203 15.7313 C 71.3203 15.4773 71.4045 15.2595 71.5731 15.078 C 71.7416 14.8965 71.9756 14.7514 72.2565 14.6425 C 72.5374 14.5426 72.8464 14.4973 73.1835 14.4973 C 73.5206 14.5154 73.8389 14.5789 74.1384 14.706 C 74.438 14.833 74.7002 15.0145 74.9062 15.2504 C 75.1122 15.4864 75.2526 15.7768 75.3275 16.1125 L 77.1157 15.804 C 76.9659 15.2232 76.7133 14.7151 76.3575 14.2976 C 76.0017 13.8802 75.5522 13.5535 75.0185 13.3357 C 74.4849 13.1179 73.8763 13 73.2022 13 C 72.528 13 71.9195 13.0998 71.3765 13.3085 C 70.8241 13.5172 70.384 13.8348 70.0657 14.2523 C 69.738 14.6697 69.5788 15.1869 69.5788 15.804 C 69.5788 16.2305 69.6443 16.5844 69.7941 16.8747 C 69.9346 17.1651 70.1219 17.4011 70.3466 17.5825 C 70.5712 17.764 70.8147 17.9093 71.0768 18.0181 C 71.3297 18.127 71.5637 18.2086 71.7883 18.2632 L 74.3538 18.9982 C 74.5317 19.0526 74.6909 19.1161 74.8312 19.1887 C 74.9718 19.2613 75.0841 19.343 75.1777 19.4337 C 75.2714 19.5245 75.3369 19.6333 75.3837 19.7423 C 75.4305 19.8512 75.4586 19.9782 75.4586 20.1052 C 75.4586 20.4138 75.3555 20.6679 75.159 20.8675 C 74.9623 21.0671 74.7096 21.2214 74.4006 21.3303 C 74.0823 21.4392 73.7546 21.4937 73.3988 21.4937 C 72.7996 21.4937 72.2753 21.3393 71.8165 21.0308 C 71.3578 20.7223 71.058 20.2777 70.9177 19.6969 L 69.1949 19.951 C 69.2886 20.5862 69.532 21.1306 69.9065 21.5844 C 70.2811 22.0381 70.7585 22.392 71.3391 22.637 C 71.9195 22.8729 72.5655 23 73.2958 23 C 73.8014 23 74.2882 22.9364 74.7565 22.8185 L 74.7565 22.8185 Z" fill="#383838"/>
		<path d="M 85 22.8003 L 85 21.294 L 80.6182 21.294 L 80.6182 13.1815 L 78.9611 13.1815 L 78.9611 22.8003 L 85 22.8003 L 85 22.8003 Z" fill="#383838"/>
		<path d="M 51.4836 33.8811 L 51.4836 32.9838 L 48.9001 32.9838 L 48.9001 31.3622 L 51.0311 31.3622 L 51.0311 30.4648 L 48.9001 30.4648 L 48.9001 29.0486 L 51.4836 29.0486 L 51.4836 28.1514 L 48 28.1514 L 48 33.8811 L 51.4836 33.8811 L 51.4836 33.8811 Z" fill="#696969"/>
		<path d="M 53.259 33.8811 L 53.259 29.8432 L 55.756 33.8811 L 56.6714 33.8811 L 56.6714 28.1514 L 55.756 28.1514 L 55.756 32.1892 L 53.259 28.1514 L 52.3435 28.1514 L 52.3435 33.8811 L 53.259 33.8811 L 53.259 33.8811 Z" fill="#696969"/>
		<path d="M 61.8236 33.5081 C 62.2355 33.1784 62.5254 32.7351 62.6932 32.1729 L 61.7829 31.9027 C 61.6761 32.2757 61.4981 32.5676 61.2489 32.7784 C 60.9946 32.9946 60.6691 33.0973 60.2674 33.0973 C 59.9063 33.0973 59.6063 33.0108 59.3621 32.8378 C 59.118 32.6649 58.94 32.427 58.8179 32.1135 C 58.6959 31.8 58.6349 31.4378 58.6349 31.0162 C 58.6349 30.6 58.6959 30.2378 58.8179 29.9243 C 58.94 29.6108 59.118 29.3676 59.3621 29.1946 C 59.6063 29.0216 59.9063 28.9351 60.2674 28.9351 C 60.6691 28.9351 60.9946 29.0432 61.2489 29.254 C 61.4981 29.4649 61.6761 29.7567 61.7829 30.1297 L 62.6932 29.8649 C 62.5254 29.3027 62.2355 28.8594 61.8236 28.5297 C 61.4066 28.2 60.8878 28.0324 60.2674 28.0324 C 59.7283 28.0324 59.2655 28.1621 58.8841 28.4108 C 58.4976 28.6595 58.2026 29.0108 57.9992 29.4595 C 57.7906 29.9081 57.689 30.427 57.689 31.0162 C 57.689 31.6108 57.7906 32.1297 57.9992 32.5784 C 58.2026 33.027 58.4976 33.3784 58.8841 33.627 C 59.2655 33.8757 59.7283 34 60.2674 34 C 60.8878 34 61.4066 33.8378 61.8236 33.5081 L 61.8236 33.5081 Z" fill="#696969"/>
		<path d="M 70.8514 33.8811 L 70.8514 31.5351 L 72.6823 28.1514 L 71.6295 28.1514 L 70.3937 30.4378 L 69.1579 28.1514 L 68.1052 28.1514 L 69.941 31.5351 L 69.941 33.8811 L 70.8514 33.8811 L 70.8514 33.8811 Z" fill="#696969"/>
		<path d="M 74.1982 33.8811 L 74.1982 31.8811 L 75.5255 31.8811 C 75.5763 31.8811 75.6425 31.8811 75.7239 31.8757 C 75.8052 31.8702 75.8865 31.8594 75.9578 31.8487 C 76.2629 31.8 76.5223 31.6919 76.7257 31.5189 C 76.9291 31.3513 77.0766 31.1351 77.1783 30.8757 C 77.28 30.6162 77.3309 30.3297 77.3309 30.0162 C 77.3309 29.7027 77.28 29.4162 77.1834 29.1567 C 77.0817 28.8973 76.9342 28.6865 76.7308 28.5135 C 76.5273 28.3459 76.268 28.2378 75.9578 28.1838 C 75.8865 28.173 75.8052 28.1621 75.7239 28.1568 C 75.6425 28.1568 75.5763 28.1514 75.5255 28.1514 L 73.298 28.1514 L 73.298 33.8811 L 74.1982 33.8811 L 74.1982 33.8811 ZM 74.1982 29.0486 L 75.4899 29.0486 C 75.5357 29.0486 75.5916 29.054 75.6526 29.0594 C 75.7137 29.0649 75.7747 29.0757 75.8306 29.0865 C 75.9781 29.1297 76.0951 29.2 76.1815 29.2973 C 76.268 29.4 76.329 29.5135 76.3646 29.6432 C 76.4002 29.7729 76.4205 29.8973 76.4205 30.0162 C 76.4205 30.1405 76.4002 30.2648 76.3646 30.3946 C 76.329 30.5243 76.268 30.6378 76.1815 30.7351 C 76.0951 30.8378 75.9781 30.9081 75.8306 30.946 C 75.7747 30.9621 75.7137 30.9729 75.6526 30.9784 C 75.5916 30.9838 75.5357 30.9838 75.4899 30.9838 L 74.1982 30.9838 L 74.1982 29.0486 L 74.1982 29.0486 Z" fill="#696969"/>
		<path d="M 80.4894 33.8811 L 80.4894 29.0486 L 82.2338 29.0486 L 82.2338 28.1514 L 77.845 28.1514 L 77.845 29.0486 L 79.5893 29.0486 L 79.5893 33.8811 L 80.4894 33.8811 L 80.4894 33.8811 Z" fill="#696969"/>
		<path d="M 83.9379 33.8811 L 83.9379 28.1514 L 83.0377 28.1514 L 83.0377 33.8811 L 83.9379 33.8811 L 83.9379 33.8811 Z" fill="#696969"/>
		<path d="M 88.6934 33.627 C 89.08 33.3784 89.3749 33.027 89.5783 32.5784 C 89.7817 32.1297 89.8885 31.6108 89.8885 31.0162 C 89.8885 30.427 89.7817 29.9081 89.5783 29.4595 C 89.3749 29.0108 89.08 28.6595 88.6934 28.4108 C 88.3069 28.1621 87.8441 28.0324 87.3051 28.0324 C 86.766 28.0324 86.3032 28.1621 85.9218 28.4108 C 85.5352 28.6595 85.2402 29.0108 85.0368 29.4595 C 84.8284 29.9081 84.7266 30.427 84.7266 31.0162 C 84.7266 31.6108 84.8284 32.1297 85.0368 32.5784 C 85.2402 33.027 85.5352 33.3784 85.9218 33.627 C 86.3032 33.8757 86.766 34 87.3051 34 C 87.8441 34 88.3069 33.8757 88.6934 33.627 L 88.6934 33.627 ZM 86.3998 32.8324 C 86.1557 32.6594 85.9777 32.4216 85.8607 32.1081 C 85.7386 31.8 85.6827 31.4378 85.6827 31.0162 C 85.6827 30.6 85.7386 30.2324 85.8607 29.9189 C 85.9828 29.6054 86.1608 29.3622 86.4048 29.1892 C 86.6439 29.0162 86.944 28.9351 87.3051 28.9351 C 87.6661 28.9459 87.9662 29.0324 88.2103 29.2054 C 88.4493 29.3784 88.6273 29.6162 88.7493 29.9243 C 88.8714 30.2378 88.9324 30.6 88.9324 31.0162 C 88.9324 31.4378 88.8714 31.8 88.7493 32.1135 C 88.6273 32.427 88.4493 32.6703 88.2103 32.8432 C 87.9662 33.0162 87.6661 33.1027 87.3051 33.0973 C 86.944 33.0973 86.6439 33.0054 86.3998 32.8324 L 86.3998 32.8324 Z" fill="#696969"/>
		<path d="M 91.5875 33.8811 L 91.5875 29.8432 L 94.0846 33.8811 L 95 33.8811 L 95 28.1514 L 94.0846 28.1514 L 94.0846 32.1892 L 91.5875 28.1514 L 90.6721 28.1514 L 90.6721 33.8811 L 91.5875 33.8811 L 91.5875 33.8811 Z" fill="#696969"/>
		<path d="M 64.5545 33.8811 L 64.5545 31.8263 L 65.9802 31.8263 L 66.3768 31.7906 C 66.848 31.7088 67.1967 31.497 67.425 31.1524 C 67.6534 30.8078 67.7689 30.3943 67.7689 29.9144 C 67.7689 29.5928 67.7183 29.2967 67.6174 29.0312 C 67.5164 28.7658 67.3601 28.5462 67.1509 28.3727 C 66.9418 28.1991 66.6774 28.0842 66.3576 28.0332 C 66.2855 28.0204 66.2062 28.0128 66.122 28.0076 C 66.0378 28.0025 65.9681 28 65.9152 28 L 63.6265 28 L 63.6265 33.8811 L 64.5545 33.8811 L 64.5545 33.8811 ZM 67.8578 33.8811 L 67.8578 33.8811 ZM 64.5545 28.924 L 65.8768 28.924 C 65.9272 28.924 65.985 28.9266 66.0499 28.9291 C 66.1124 28.9342 66.1725 28.9445 66.2278 28.9597 C 66.3817 29.0006 66.5019 29.0746 66.5908 29.1767 C 66.6774 29.2814 66.7399 29.3988 66.7783 29.5315 C 66.8144 29.6643 66.8336 29.7919 66.8336 29.9144 C 66.8336 30.042 66.8144 30.1697 66.7783 30.2999 C 66.7399 30.4326 66.6774 30.55 66.5908 30.6521 C 66.5019 30.7542 66.3817 30.8257 66.2278 30.8665 C 66.1725 30.8844 66.1124 30.8946 66.0499 30.8997 C 65.985 30.9048 65.9272 30.9073 65.8768 30.9073 L 64.5545 30.9073 L 64.5545 28.924 L 64.5545 28.924 Z" fill="#696969"/>
		<path d="M 67.8578 33.8811 L 66.6581 31.2672 L 65.7157 31.4868 L 66.8072 33.8811 L 67.8578 33.8811 L 67.8578 33.8811 Z" fill="#696969"/>
	</g>
</svg>