<svg xmlns="http://www.w3.org/2000/svg" width="32" height="30" viewBox="0 0 32 30">
    <defs>
        <linearGradient id="a5jai37afa" x1="0%" x2="100%" y1="0%" y2="100%">
            <stop offset="0%" stop-color="#F5F4EC"/>
            <stop offset="100%" stop-color="#ACE7CE"/>
        </linearGradient>
    </defs>
    <g fill="none" fill-rule="evenodd">
        <g>
            <g>
                <path stroke="#567D68" stroke-linecap="square" stroke-width="2" d="M1.645 20.762L18.584 20.762 18.584 6.145 1.645 6.145zM30.439 20.762L18.584 20.762 18.584 10.587 24.579 10.587 30.439 14.934z" transform="translate(-943 -707) translate(943 707)"/>
                <path fill="url(#a5jai37afa)" d="M9.592 20.762c0 1.531-1.241 2.772-2.772 2.772-1.53 0-2.772-1.241-2.772-2.772 0-1.53 1.241-2.772 2.772-2.772 1.53 0 2.772 1.241 2.772 2.772zM27.283 20.762c0 1.531-1.241 2.772-2.772 2.772-1.53 0-2.772-1.241-2.772-2.772 0-1.53 1.241-2.772 2.772-2.772 1.531 0 2.772 1.241 2.772 2.772z" transform="translate(-943 -707) translate(943 707)"/>
                <path stroke="#567D68" stroke-linecap="square" stroke-width="2" d="M9.592 20.762c0 1.531-1.241 2.772-2.772 2.772-1.53 0-2.772-1.241-2.772-2.772 0-1.53 1.241-2.772 2.772-2.772 1.53 0 2.772 1.241 2.772 2.772zM27.283 20.762c0 1.531-1.241 2.772-2.772 2.772-1.53 0-2.772-1.241-2.772-2.772 0-1.53 1.241-2.772 2.772-2.772 1.531 0 2.772 1.241 2.772 2.772z" transform="translate(-943 -707) translate(943 707)"/>
            </g>
        </g>
    </g>
</svg>
