<svg width="65" height="65" xmlns="http://www.w3.org/2000/svg">
    <g fill="none" fill-rule="evenodd">
        <path fill="#567D68" d="m32.5 65-2.04-.064-2.033-.192-2.017-.32-1.992-.445-1.961-.57-1.921-.691-1.874-.811-1.819-.927-1.757-1.04-1.689-1.147-1.613-1.251-1.532-1.35-1.443-1.444-1.35-1.532-1.252-1.613-1.148-1.689-1.039-1.757-.927-1.82-.81-1.873-.692-1.92-.57-1.962-.445-1.992-.32-2.017-.192-2.032L0 32.5l.064-2.04.192-2.033.32-2.017.445-1.992.57-1.961.691-1.921.811-1.874.927-1.819 1.04-1.757 1.147-1.689 1.251-1.613 1.35-1.532 1.444-1.443 1.532-1.35 1.613-1.252 1.689-1.148 1.757-1.039 1.82-.927 1.873-.81 1.92-.692 1.962-.57L26.41.576l2.017-.32 2.032-.192L32.5 0l2.04.064 2.033.192 2.017.32 1.992.445 1.961.57 1.921.691 1.874.811 1.819.927 1.757 1.04 1.689 1.147 1.613 1.251 1.532 1.35 1.443 1.444 1.35 1.532 1.252 1.613 1.148 1.689 1.039 1.757.927 1.82.81 1.873.692 1.92.57 1.962.445 1.992.32 2.017.192 2.032L65 32.5l-.064 2.04-.192 2.033-.32 2.017-.445 1.992-.57 1.961-.691 1.921-.811 1.874-.927 1.819-1.04 1.757-1.147 1.689-1.251 1.613-1.35 1.532-1.444 1.443-1.532 1.35-1.613 1.252-1.689 1.148-1.757 1.039-1.82.927-1.873.81-1.92.692-1.962.57-1.992.445-2.017.32-2.032.192z"/>
        <path stroke="#F5F4EC" stroke-width="4" stroke-linecap="square" d="M46.446 24.143 27.833 42.756l-9.262-9.262"/>
    </g>
</svg>
