<svg xmlns="http://www.w3.org/2000/svg" width="67" height="49" viewBox="0 0 67 49">
    <g fill="none" fill-rule="evenodd">
        <g fill="#567D68">
            <g>
                <path d="M110.117 120.33h.44c.152 0 .264-.028.334-.082.07-.054.106-.14.106-.257 0-.102-.035-.178-.106-.226-.07-.048-.182-.072-.334-.072h-.44v.637zm-.163 1.168h-.163v-2.069H110.618c.223 0 .398.05.525.148.126.099.19.236.19.412 0 .191-.064.341-.191.45-.095.081-.217.132-.366.152l.594.907h-.376l-.533-.895-.344.002v.893h-.163zm-.832-1.033c0 .417.141.769.423 1.055.282.287.627.43 1.035.43.409 0 .754-.143 1.037-.43.282-.286.423-.638.423-1.055 0-.417-.14-.77-.422-1.057-.282-.287-.628-.431-1.038-.431-.408 0-.753.144-1.035.431-.282.288-.423.64-.423 1.057zm.164 1.27c-.353-.346-.53-.77-.53-1.27 0-.502.178-.927.53-1.273.354-.346.785-.519 1.294-.519.511 0 .943.173 1.296.52.354.345.53.77.53 1.272 0 .5-.176.924-.528 1.27-.353.346-.785.52-1.298.52-.51 0-.942-.174-1.294-.52zm3.275 16.86l-2.53.411 2.098 1.448-.417 2.54 2.05-1.553 2.258 1.184-.818-2.435 1.798-1.784-2.54.026-1.163-2.262-.736 2.425zm-2.33-3.673l4.04-.174s-11.612-21.523-35.506-17.166c0 0 20.96-1.323 31.467 17.34zm-45.388 17.507l2.28-1.173-2.442-.73-.387-2.544-1.47 2.11-2.513-.426 1.528 2.062-1.16 2.252 2.408-.809 1.802 1.792-.046-2.534zm3.347 2.774l-3.788 1.413s17.674 16.885 39.06 5.356c0 0-19.53 7.736-35.272-6.769zm-4.473-28.182c-1.04.126-1.992.792-2.014 1.378 0 0 .963-.218 2.167-.16 1.203.057 1.845.217 1.845.217s.069-.401-.069-.86c-.137-.46-.889-.701-1.929-.575zm-4.441 11.63c-1.143-.844-4.211-2.29-6.707-1.627-2.496.663-2.569 2.219-2.569 2.219s-.006.74.463.553c0 0 1.354-.693 4.151-.753 2.797-.06 4.662.376 4.662.376s1.143.075 0-.768zm15.805 9.727s.746.099.497-.597c-.24-.672-2.006-4.305-7.122-5.01-.682-.338-1.844-1.078-2.913-2.556-1.64-2.266-1.584-4.645-1.584-4.645s-4.638-.708-5.939-3.711c-.325-.75-.569-1.424-.698-2.024.533-.469 2.069-1.012 1.857-1.319-.187-.27-1.273-.342-1.837-.36.297-.859 1.15-1.451 2.8-1.793 3.42-.707 5.485-.51 7.266.595 0 0 .156.166.476.03.32-.136 2.424-2.055 4.161-2.775 1.737-.72 3.276-1.192 3.596-.81.32.38-.532 2.35-2.696 3.968-2.165 1.618-3.658 2.427-3.658 2.427s.61.137 1.432 0c.824-.137 4.77-2.824 6.157-4.732 1.387-1.908.914-3.373.716-3.694-.198-.32-2.45-.724-10.071 3.462 0 0-.15-.052-.42-.125l-.168-1.015c1.916-3.394 6.21-3.534 7.005-3.434.796.1.944.05.845-.498-.1-.547-3.378-.995-5.962 0-2.58.993-5.705 4.443-5.717 4.456-1.843.047-3.94.518-5.622 2.032-3.902 3.513-.849 8.385 2.008 10.028.753.433 1.976.382 2.573 1.075 0 0 1.838 4.123 3.086 5.284-4.174.163-7.225 1.587-8.402 3.069-.293.368-.26.74.25.582 0 0 11.377-3.882 18.084 2.09zm32.393 11.994c-.696-1.543-.546-4.43-.546-4.43.014-.692-.75-.214-.75-.214s-1.919 1.242-1.038 4.594c.713 2.715 3.193 3.018 4.298 3.001.332-.005.52-.314.52-.314s-1.788-1.095-2.484-2.637zm1.348-9.322s-.557-2.252-.922-1.948c-.365.305-3.16 5.899-7.535 4.715-4.376-1.184-9.663-5.08-11-7.393 0 0-1.509-.974-.85 0 0 0 6.199 9.861 12.518 9.861 6.32 0 6.26-3.53 6.26-3.53s.026 1.776.79 3.53c1.27 2.922 4.086 6.231 8.567 4.443 0 0 .106-.126.106-.322s-.106-.287-.106-.287-5.082-.973-7.828-9.069zm-2.746-8.095s-1.943-1.096-4.556-.061c0 0-3.343-6.33-8.569-9.678-5.226-3.348-7.353-3.896-13.187-3.287v-.366s3.89-2.313 8.325-1.46c4.437.852 11.486 5.843 14.706 12.112 0 0 5.773.159 6.016 2.362.244 2.204-3.585 4.638-6.502 4.152 0 0 .122-.793 1.762-1.218 1.641-.426 2.005-2.556 2.005-2.556z" transform="translate(-870 -1548) translate(820 1431)"/>
            </g>
        </g>
    </g>
</svg>
