<svg xmlns="http://www.w3.org/2000/svg" width="35" height="49" viewBox="0 0 35 49">
    <g fill="none" fill-rule="evenodd" stroke-linecap="square" stroke-linejoin="round">
        <g stroke="#567d68" stroke-width="2">
            <g>
                <path d="M240.716 117c-.003 0-.006.006-.01.013h0l-.002.007h0l-.018.045h0l-.006.019h0l-.007.022h0s0 0 0 0h0c-.286.888-1.89 7.375-3.592 13.48h0c-1.489 6.162-3.073 11.95-3.081 16.058h0v.067c0 .386.016.756.046 1.11h0c.609 6.73 8.51 12.915 17.132 16.038h0c2.16-9.795-3.556-19.559-5.353-30.106h0c6.628 11.76 12.41 17.333 12.39 30.247h0c5.099-1.226 8.763-5.495 8.785-11.562h0v-.11c-.009-2.409-.59-5.096-1.878-7.988h0c-2.839-6.34-10.073-14.18-15.345-19.324h0c-.685-.666-1.339-1.29-1.959-1.871h0c-1.86-1.745-3.42-3.112-4.598-4.11h0c-.197-.167-.383-.323-.557-.468h0c-.176-.146-.34-.282-.493-.407h0c-.916-.752-1.427-1.136-1.453-1.16h0s0 0 0 0h0-.001z" transform="translate(-1053 -1547) translate(820 1431)"/>
            </g>
        </g>
    </g>
</svg>
