<svg xmlns="http://www.w3.org/2000/svg" width="54" height="51" viewBox="0 0 54 51">
    <g fill="none" fill-rule="evenodd" stroke-linecap="square" stroke-linejoin="round">
        <g stroke="#f5f4ec" stroke-width="2">
            <g>
                <path d="M436.347 130.318c-.029-.06-9.997 5.752-9.997 5.752l6.823 11.892s6.733.145 8.596-4.526c1.225-3.07-2.688-8.437-5.422-13.118h0zm-.13 18.11c-2.698.843-10.246.183-12.288-.021l-.017-4.91-6.265 10.63L423.988 165l-.016-4.683c1.605.009 6.343-.05 7.81-.89 1.77-1.022 7.837-12.33 7.837-12.33s-.266.354-3.402 1.33h0zm-35.078-.123s-3.498 5.775-.39 9.732c2.04 2.597 8.638 1.881 14.047 1.848.068 0 .027-11.547.027-11.547l-13.684-.033zm4.236-8.243l4.251 2.442-6.052-10.751-12.574.06 4.058 2.332c-.807 1.39-3.128 5.535-3.132 7.222-.008 2.046 6.738 12.969 6.738 12.969s-.171-.41.547-3.62c.62-2.764 4.97-8.983 6.164-10.654h0zm24.439-7.993l6.455-10.806-4.09 2.27c-.768-1.414-3.106-5.55-4.543-6.424-1.752-1.065-14.558-.936-14.558-.936s.43.055 2.8 2.342c2.041 1.966 5.103 8.913 5.907 10.798l-4.283 2.384 12.312.372zm-12.873-10.65l-7.108 11.717s-9.82-5.907-9.791-5.975c2.779-4.65 5.522-10.711 8.79-11.117 4.986-.616 8.11 5.376 8.11 5.376h0z" transform="translate(-1210 -1546) translate(820 1431)"/>
            </g>
        </g>
    </g>
</svg>
