<?xml version="1.0" standalone="no"?>
<!DOCTYPE svg PUBLIC "-//W3C//DTD SVG 20010904//EN"
 "http://www.w3.org/TR/2001/REC-SVG-20010904/DTD/svg10.dtd">
<svg version="1.0" xmlns="http://www.w3.org/2000/svg"
 width="260.000000pt" height="260.000000pt" viewBox="0 0 260.000000 260.000000"
 preserveAspectRatio="xMidYMid meet">
<metadata>
Created by potrace 1.11, written by Peter Selinger 2001-2013
</metadata>
<g transform="translate(0.000000,260.000000) scale(0.100000,-0.100000)"
fill="#000000" stroke="none">
<path d="M0 1300 l0 -1300 1300 0 1300 0 0 1300 0 1300 -1300 0 -1300 0 0
-1300z m2484 1184 c14 -14 16 -135 16 -1184 0 -1049 -2 -1170 -16 -1184 -14
-14 -135 -16 -1184 -16 -1049 0 -1170 2 -1184 16 -14 14 -16 135 -16 1184 0
1049 2 1170 16 1184 14 14 135 16 1184 16 1049 0 1170 -2 1184 -16z"/>
<path d="M160 1300 l0 -1140 533 0 532 1 607 512 607 512 0 628 1 627 -1140 0
-1140 0 0 -1140z m570 468 l0 -193 193 193 192 192 74 0 74 0 -206 -201 -207
-201 182 -201 c100 -111 197 -219 217 -239 l35 -38 -76 0 -75 0 -199 226 -199
226 -3 -226 -2 -226 -50 0 -50 0 0 440 0 440 50 0 50 0 0 -192z m981 -92 c2
-2 3 -26 1 -53 l-4 -48 -59 0 c-67 -1 -101 -20 -134 -76 -18 -30 -20 -56 -23
-226 l-4 -193 -54 0 -54 0 0 290 0 290 50 0 50 0 0 -38 0 -39 38 37 c22 20 54
41 73 47 34 11 112 17 120 9z"/>
<path d="M1900 663 c-289 -245 -541 -458 -560 -474 l-35 -29 568 0 567 0 0
475 c0 261 -3 475 -7 474 -5 0 -244 -201 -533 -446z"/>
</g>
</svg>
